<svg width="24" height="24" viewBox="0 0 24 24" fill="none" xmlns="http://www.w3.org/2000/svg">
<path d="M2.18408 6.90393C2.18408 6.70977 2.34149 6.55237 2.53564 6.55237C2.7298 6.55237 2.88721 6.70977 2.88721 6.90393C2.88721 7.09809 2.7298 7.25549 2.53564 7.25549C2.34149 7.25549 2.18408 7.09813 2.18408 6.90393Z" fill="white"/>
<path d="M4.36816 6.90393C4.36816 6.70977 4.52557 6.55237 4.71973 6.55237C4.91388 6.55237 5.07129 6.70977 5.07129 6.90393C5.07129 7.09809 4.91388 7.25549 4.71973 7.25549C4.52557 7.25549 4.36816 7.09813 4.36816 6.90393Z" fill="white"/>
<path d="M6.55225 6.90393C6.55225 6.70977 6.70965 6.55237 6.90381 6.55237C7.09796 6.55237 7.25537 6.70977 7.25537 6.90393C7.25537 7.09809 7.09796 7.25549 6.90381 7.25549C6.70965 7.25549 6.55225 7.09813 6.55225 6.90393Z" fill="white"/>
<path d="M22.9453 4.36829H16.5356C16.3414 4.36829 16.1841 4.52569 16.1841 4.71985C16.1841 4.914 16.3414 5.07141 16.5356 5.07141H22.9453C23.1392 5.07141 23.2969 5.2291 23.2969 5.42297V14.2088C23.2969 14.4026 23.1392 14.5603 22.9453 14.5603H22.5441V11.2472C22.5441 10.6656 22.0709 10.1925 21.4894 10.1925H7.67016C7.476 10.1925 7.31859 10.3499 7.31859 10.5441C7.31859 10.7382 7.476 10.8956 7.67016 10.8956H21.4894C21.6833 10.8956 21.8409 11.0533 21.8409 11.2472V11.6484H2.15906V11.2472C2.15906 11.0533 2.3168 10.8956 2.51063 10.8956H6.13781C6.33197 10.8956 6.48938 10.7382 6.48938 10.5441C6.48938 10.3499 6.33197 10.1925 6.13781 10.1925H2.51063C1.92905 10.1925 1.45594 10.6656 1.45594 11.2472V14.5603H1.05469C0.860812 14.5603 0.703125 14.4026 0.703125 14.2088V5.42297C0.703125 5.2291 0.860812 5.07141 1.05469 5.07141H15.0037C15.198 5.07141 15.3553 4.914 15.3553 4.71985C15.3553 4.52569 15.198 4.36829 15.0037 4.36829H1.05469C0.473109 4.36829 0 4.8414 0 5.42297V14.2088C0 14.7903 0.473109 15.2634 1.05469 15.2634H22.9453C23.5268 15.2634 24 14.7903 24 14.2088V5.42297C24 4.8414 23.5268 4.36829 22.9453 4.36829ZM2.15906 14.5603V13.8075H11.2341C11.4282 13.8075 11.5856 13.6501 11.5856 13.4559C11.5856 13.2618 11.4282 13.1044 11.2341 13.1044H2.15906V12.3516H21.8409V13.1044H12.7659C12.5717 13.1044 12.4144 13.2618 12.4144 13.4559C12.4144 13.6501 12.5717 13.8075 12.7659 13.8075H21.8409V14.5603H2.15906Z" fill="white"/>
<path d="M13.1045 6.17603V7.63196C13.1045 7.82612 13.2619 7.98353 13.4561 7.98353H17.8242C18.0184 7.98353 18.1758 7.82612 18.1758 7.63196V6.17603C18.1758 5.98187 18.0184 5.82446 17.8242 5.82446H13.4561C13.2619 5.82446 13.1045 5.98187 13.1045 6.17603ZM13.8076 6.52759H17.4726V7.2804H13.8076V6.52759Z" fill="white"/>
<path d="M21.0877 6.90387C21.0877 6.30861 20.6034 5.82434 20.0082 5.82434C19.413 5.82434 18.9287 6.30861 18.9287 6.90387C18.9287 7.49914 19.413 7.9834 20.0082 7.9834C20.6034 7.9834 21.0877 7.49914 21.0877 6.90387ZM19.6318 6.90387C19.6318 6.69631 19.8007 6.52747 20.0082 6.52747C20.2157 6.52747 20.3846 6.69631 20.3846 6.90387C20.3846 7.11143 20.2157 7.28028 20.0082 7.28028C19.8007 7.28028 19.6318 7.11143 19.6318 6.90387Z" fill="white"/>
<path d="M12 16.0165C11.8058 16.0165 11.6484 16.1739 11.6484 16.368V19.2802C11.6484 19.4743 11.8058 19.6317 12 19.6317C12.1942 19.6317 12.3516 19.4743 12.3516 19.2802V16.368C12.3516 16.1739 12.1942 16.0165 12 16.0165Z" fill="white"/>
<path d="M9.08795 16.0165C8.89379 16.0165 8.73639 16.1739 8.73639 16.368C8.83229 17.3887 8.43906 18.4835 7.4747 18.9657C7.30103 19.0525 7.23062 19.2637 7.31748 19.4374C7.45304 19.6237 7.61026 19.6761 7.78914 19.5946C9.00207 18.9882 9.53715 17.6694 9.43951 16.368C9.43951 16.1739 9.28215 16.0165 9.08795 16.0165Z" fill="white"/>
<path d="M5.44772 16.0165C5.25356 16.0165 5.09616 16.1739 5.09616 16.368C5.09616 17.4183 4.51927 18.3602 3.74311 19.0315C3.60581 19.1688 3.60581 19.3914 3.74311 19.5287C3.90881 19.666 4.07456 19.666 4.24027 19.5287C5.12864 18.6751 5.79928 17.651 5.79928 16.368C5.79928 16.1739 5.64188 16.0165 5.44772 16.0165Z" fill="white"/>
<path d="M16.5253 18.9657C15.561 18.4836 15.1723 17.3902 15.2636 16.368C15.2636 16.1739 15.1063 16.0165 14.912 16.0165C14.7178 16.0165 14.5605 16.1739 14.5605 16.368C14.4557 17.6741 14.9887 18.9835 16.2109 19.5946C16.3898 19.6761 16.547 19.6236 16.6826 19.4374C16.7694 19.2637 16.699 19.0525 16.5253 18.9657Z" fill="white"/>
<path d="M18.9038 16.368C18.9133 16.1741 18.7464 16.0165 18.5522 16.0165C18.358 16.0165 18.2007 16.1739 18.2007 16.368C18.2007 17.6394 18.874 18.6835 19.7597 19.5287C19.9254 19.666 20.0912 19.666 20.2569 19.5287C20.3942 19.3914 20.3942 19.1688 20.2569 19.0315C19.5235 18.3671 18.8623 17.2129 18.9038 16.368Z" fill="white"/>
</svg>
