<svg width="24" height="24" viewBox="0 0 24 24" fill="none" xmlns="http://www.w3.org/2000/svg">
<path d="M22.9259 9.48207H22.5745V3.33094C22.5745 2.75532 22.1062 2.28699 21.5305 2.28699H19.2981C18.7224 2.28699 18.2541 2.75527 18.2541 3.33094V3.74878C17.4124 3.89405 16.7701 4.62938 16.7701 5.51189C16.7701 5.70408 16.9259 5.85989 17.1181 5.85989H20.086C20.2782 5.85989 20.434 5.70408 20.434 5.51189C20.434 4.62938 19.7917 3.8941 18.9501 3.74878V3.33094C18.9501 3.13903 19.1062 2.98294 19.2981 2.98294H21.5305C21.7224 2.98294 21.8785 3.13903 21.8785 3.33094V9.48207H16.734C16.5946 9.06929 16.2037 8.77125 15.7445 8.77125H15.0462C14.854 8.77125 14.6982 8.92707 14.6982 9.11925C14.6982 9.31144 14.854 9.46725 15.0462 9.46725H15.7445C15.9364 9.46725 16.0925 9.62335 16.0925 9.81525V13.0933H11.7446V9.81521C11.7446 9.6233 11.9007 9.46721 12.0926 9.46721H13.5295C13.7217 9.46721 13.8775 9.31139 13.8775 9.11921C13.8775 8.92702 13.7218 8.77121 13.5295 8.77121H12.0926C11.6404 8.77121 11.2545 9.06024 11.1097 9.46327C10.3758 9.40425 9.64997 9.20297 8.99391 8.87475C7.90294 8.32922 6.68123 8.04089 5.46098 8.04089H1.07414C0.481828 8.04094 0 8.52277 0 9.11504C0 9.7073 0.481828 10.1892 1.07414 10.1892H1.68009V14.2188C1.68009 16.1505 2.874 17.8086 4.56272 18.4942V19.2033C4.56272 19.4088 4.39556 19.5759 4.19011 19.5759C3.60089 19.5759 3.12155 20.0553 3.12155 20.6446C3.12155 21.2338 3.60089 21.7132 4.19011 21.7132H5.63133C6.22055 21.7132 6.69994 21.2338 6.69994 20.6446V19.9239C6.69994 19.3211 7.19039 18.8307 7.79316 18.8307H7.79494H10.6399C10.8321 18.8307 10.9879 18.6749 10.9879 18.4827C10.9879 18.2905 10.8322 18.1347 10.6399 18.1347H6.2925C4.13297 18.1347 2.37609 16.378 2.37609 14.2188V10.1892H3.62142C3.81361 10.1892 3.96942 10.0334 3.96942 9.84118C3.96942 9.64899 3.81366 9.49318 3.62142 9.49318H1.07414C0.865641 9.49318 0.696 9.32353 0.696 9.11504C0.696 8.90654 0.865641 8.73689 1.07414 8.73689H5.46098C6.57375 8.73689 7.68778 8.99982 8.68256 9.49725C9.41634 9.86433 10.2279 10.0898 11.0486 10.1566V10.915C10.1104 10.8466 9.18248 10.5929 8.34464 10.1734C7.35403 9.67861 6.23972 9.47143 5.13759 9.49318C4.94541 9.49318 4.78959 9.64899 4.78959 9.84118C4.78959 10.0334 4.94536 10.1892 5.13759 10.1892C6.12741 10.1621 7.14441 10.3519 8.03334 10.7959C8.96695 11.2633 10.0027 11.5432 11.0486 11.6127V14.8823C11.0486 15.0744 11.2044 15.2303 11.3966 15.2303H16.4405C16.6327 15.2303 16.7885 15.0744 16.7885 14.8823V11.6303H21.8574V14.2188C21.8574 16.378 20.1005 18.1347 17.941 18.1347H12.1566C11.9644 18.1347 11.8086 18.2905 11.8086 18.4827C11.8086 18.6749 11.9644 18.8307 12.1566 18.8307H16.4385H16.4403C17.0431 18.8307 17.5335 19.3211 17.5335 19.9239V20.6446C17.5335 21.2338 18.0129 21.7132 18.6021 21.7132H20.0433C20.6325 21.7132 21.1119 21.2338 21.1119 20.6446C21.1119 20.0553 20.6325 19.5759 20.0433 19.5759C19.8378 19.5759 19.6707 19.4088 19.6707 19.2033V18.4942C21.3594 17.8086 22.5533 16.1505 22.5533 14.2188V11.6303H22.9259C23.5182 11.6303 24 11.1484 24 10.5562C24 9.96389 23.5182 9.48207 22.9259 9.48207ZM19.6813 5.16389H17.5229C17.6858 4.67986 18.1718 4.43897 18.6448 4.41867C19.126 4.41863 19.5357 4.73114 19.6813 5.16389ZM6.37767 18.8307C6.14344 19.1332 6.00389 19.5126 6.00389 19.9239V20.6445C6.00389 20.85 5.83673 21.0171 5.63128 21.0171H4.19002C3.98456 21.0171 3.81745 20.85 3.81745 20.6445C3.81745 20.4391 3.98461 20.2719 4.19002 20.2719C4.77923 20.2719 5.25863 19.7926 5.25863 19.2033V18.7139C5.62927 18.795 6.0023 18.8339 6.37767 18.8307ZM20.0434 20.2719C20.2488 20.2719 20.4159 20.4391 20.4159 20.6445C20.4159 20.85 20.2488 21.0171 20.0434 21.0171H18.6022C18.3967 21.0171 18.2295 20.85 18.2295 20.6445V19.9239C18.2295 19.5126 18.09 19.1332 17.8558 18.8307C18.2311 18.8339 18.6042 18.7949 18.9748 18.7139V19.2033C18.9748 19.7926 19.4542 20.2719 20.0434 20.2719ZM11.7446 14.5343V13.7892H16.0925V14.5343H11.7446ZM22.9259 10.9343H16.7885V10.178H22.9259C23.1344 10.178 23.304 10.3477 23.304 10.5562C23.304 10.7647 23.1344 10.9343 22.9259 10.9343Z" fill="white"/>
<path d="M18.9502 7.66818V6.9531C18.9502 6.76091 18.7944 6.6051 18.6022 6.6051C18.4099 6.6051 18.2542 6.76091 18.2542 6.9531V7.66818C18.2542 7.86037 18.4099 8.01618 18.6022 8.01618C18.7944 8.01618 18.9502 7.86037 18.9502 7.66818Z" fill="white"/>
<path d="M20.6278 7.80949C20.7785 7.69024 20.7637 7.45324 20.6278 7.3174L20.1221 6.81176C19.9862 6.67587 19.7659 6.67587 19.63 6.81176C19.4941 6.94765 19.4941 7.16801 19.63 7.30385L20.1356 7.80949C20.3117 7.96348 20.4625 7.94032 20.6278 7.80949Z" fill="white"/>
<path d="M16.9014 7.80949L17.4071 7.30385C17.543 7.16796 17.543 6.9476 17.4071 6.81176C17.2711 6.67587 17.0509 6.67587 16.9149 6.81176L16.4093 7.3174C16.2734 7.45329 16.2734 7.67365 16.4093 7.80949C16.4772 7.87746 16.6869 7.98668 16.9014 7.80949Z" fill="white"/>
<path d="M11.3982 8.01755C11.9851 8.01755 12.4627 7.54003 12.4627 6.95311C12.4627 6.36619 11.9852 5.88867 11.3982 5.88867C10.8113 5.88867 10.3337 6.36619 10.3337 6.95311C10.3337 7.54003 10.8113 8.01755 11.3982 8.01755ZM11.3982 6.58463C11.6014 6.58463 11.7667 6.74991 11.7667 6.95311C11.7667 7.15631 11.6014 7.32159 11.3982 7.32159C11.195 7.32159 11.0297 7.15631 11.0297 6.95311C11.0297 6.74991 11.195 6.58463 11.3982 6.58463Z" fill="white"/>
<path d="M8.51151 5.85153C9.09843 5.85153 9.57599 5.37402 9.57599 4.78709C9.57599 4.20017 9.09847 3.72266 8.51151 3.72266C7.92454 3.72266 7.44702 4.20017 7.44702 4.78709C7.44702 5.37402 7.92458 5.85153 8.51151 5.85153ZM8.51151 4.41861C8.71471 4.41861 8.87999 4.58389 8.87999 4.78709C8.87999 4.9903 8.71471 5.15558 8.51151 5.15558C8.3083 5.15558 8.14302 4.9903 8.14302 4.78709C8.14302 4.58389 8.3083 4.41861 8.51151 4.41861Z" fill="white"/>
</svg>
