<svg width="24" height="24" viewBox="0 0 24 24" fill="none" xmlns="http://www.w3.org/2000/svg">
<path d="M23.6484 17.4725C23.812 17.2092 23.9999 16.7374 23.9999 16.3709V14.909C23.9999 14.3139 23.7103 13.7851 23.2645 13.4562C23.7003 13.134 24 12.5389 24 12.0013C24 11.4092 23.7135 10.8827 23.272 10.5531V4.71692C23.272 3.72181 22.4624 2.91223 21.4673 2.91223H12.7659C12.5717 2.91223 12.4144 3.06964 12.4144 3.26379C12.4144 3.45795 12.5717 3.61536 12.7659 3.61536H21.4673C22.0748 3.61536 22.5689 4.10951 22.5689 4.71692V10.2344C22.3383 10.1855 22.0558 10.1864 21.8159 10.1952V5.42281C21.8159 4.84123 21.3427 4.36812 20.7612 4.36812H3.23883C2.65725 4.36812 2.18414 4.84123 2.18414 5.42281V10.1952C1.94414 10.1865 1.66191 10.1854 1.43109 10.234V4.71692C1.43109 4.10951 1.92525 3.61536 2.53266 3.61536H11.2341C11.4282 3.61536 11.5856 3.45795 11.5856 3.26379C11.5856 3.06964 11.4282 2.91223 11.2341 2.91223H2.53266C1.53755 2.91223 0.727969 3.72181 0.727969 4.71692V10.552C0.296437 10.8744 0 11.4672 0 12.0013C0 12.5971 0.290016 13.1264 0.736219 13.4556C0.290063 13.7845 9.375e-05 14.3135 9.375e-05 14.9091V16.371C9.375e-05 16.7854 0.140531 17.1676 0.376266 17.4726H0.351562C0.157406 17.4726 0 17.63 0 17.8242V19.2801C0 19.4742 0.157406 19.6317 0.351562 19.6317H1.45613V20.7362C1.45613 20.9303 1.61353 21.0877 1.80769 21.0877H3.26372C3.45788 21.0877 3.61528 20.9303 3.61528 20.7362V19.6317H6.50156C6.69572 19.6317 6.85312 19.4742 6.85312 19.2801C6.85312 19.0859 6.69572 18.9285 6.50156 18.9285H0.703125V18.1757H23.2969V18.9285H8.03391C7.83975 18.9285 7.68234 19.0859 7.68234 19.2801C7.68234 19.4742 7.83975 19.6317 8.03391 19.6317H20.3847V20.7362C20.3847 20.9303 20.542 21.0877 20.7362 21.0877H22.1923C22.3865 21.0877 22.5438 20.9303 22.5438 20.7362V19.6317H23.6484C23.8426 19.6317 24 19.4742 24 19.2801V17.8242C24 17.63 23.8426 17.4725 23.6484 17.4725ZM2.88727 5.42281C2.88727 5.22898 3.04495 5.07125 3.23883 5.07125H20.7611C20.955 5.07125 21.1127 5.22898 21.1127 5.42281V10.1952H20.2984C20.3381 10.0844 20.3597 9.96509 20.3597 9.84083V8.33473C20.3597 7.75315 19.8865 7.28004 19.305 7.28004H14.1591C13.5775 7.28004 13.1044 7.75315 13.1044 8.33473V9.84083C13.1044 9.96509 13.126 10.0844 13.1656 10.1952H10.8342C10.8739 10.0844 10.8955 9.96504 10.8955 9.84073V8.33487C10.8955 7.75329 10.4224 7.28018 9.84084 7.28018H4.69491C4.11333 7.28018 3.64022 7.75329 3.64022 8.33487V9.84073C3.64022 9.96504 3.66183 10.0844 3.70153 10.1952H2.88731L2.88727 5.42281ZM4.34334 9.84073V8.33487C4.34334 8.141 4.50103 7.98331 4.69491 7.98331H9.84084C10.0347 7.98331 10.1924 8.141 10.1924 8.33487V9.84073C10.1924 10.0346 10.0347 10.1923 9.84084 10.1923H4.69491C4.50103 10.1923 4.34334 10.0346 4.34334 9.84073ZM1.80609 10.8983H15.9661C16.1603 10.8983 16.3177 10.7409 16.3177 10.5468C16.3177 10.5463 16.3177 10.5458 16.3177 10.5454C16.3177 10.5449 16.3177 10.5444 16.3177 10.544C16.3177 10.3498 16.1603 10.1924 15.9661 10.1924H14.1591C13.9652 10.1924 13.8075 10.0347 13.8075 9.84083V8.33473C13.8075 8.14086 13.9652 7.98317 14.1591 7.98317H19.305C19.4989 7.98317 19.6566 8.14086 19.6566 8.33473V9.84083C19.6566 10.0347 19.4989 10.1924 19.305 10.1924H17.4984C17.3042 10.1924 17.1469 10.3498 17.1469 10.544V10.5454V10.5468C17.1469 10.7409 17.3042 10.8983 17.4984 10.8983H22.1939C22.8021 10.8983 23.2969 11.3931 23.2969 12.0013C23.2337 12.6734 22.866 13.0411 22.1939 13.1043H1.80609C1.19789 13.1043 0.703125 12.6095 0.703125 12.0013C0.703125 11.7068 0.958125 10.8983 1.80609 10.8983ZM0.703219 14.909C0.703219 14.3016 1.19737 13.8075 1.80478 13.8075H22.1952C22.8026 13.8075 23.2968 14.3016 23.2968 14.909V16.3709C23.2968 16.9783 22.8026 17.4725 22.1952 17.4725H1.80478C1.19737 17.4725 0.703219 16.9783 0.703219 16.3709V14.909ZM2.91216 20.3846H2.15925V19.6317H2.91216V20.3846ZM21.8407 20.3846H21.0878V19.6317H21.8407V20.3846Z" fill="white"/>
</svg>
