<svg width="45" height="45" viewBox="0 0 45 45" fill="none" xmlns="http://www.w3.org/2000/svg">
<path d="M44.3601 36.1885H34.4136C34.1206 34.4996 32.962 33.3565 31.6255 32.427C31.6699 32.3033 31.7119 32.1788 31.7513 32.0534H33.2716C38.0935 32.0534 42.1655 28.0853 42.2848 23.2638C42.2939 22.8996 42.006 22.597 41.6416 22.5879C41.636 22.5878 41.6306 22.5877 41.625 22.5877C41.2683 22.5877 40.9747 22.8725 40.9659 23.2311C40.8634 27.3681 37.4117 30.7339 33.2716 30.7339H32.0671C32.146 30.2608 32.1956 29.7768 32.2473 29.3001H33.2716C36.725 29.3001 39.5345 26.491 39.5345 23.0381V20.4705C39.5345 18.5969 38.0101 17.0726 36.1364 17.0726H33.6855L33.8542 15.6387H36.1364C38.7547 15.6387 40.9219 17.7676 40.9674 20.3844C40.9737 20.7448 41.2678 21.0326 41.6269 21.0326C41.6307 21.0326 41.6347 21.0326 41.6386 21.0325C42.0029 21.0262 42.293 20.7257 42.2868 20.3614C42.2288 17.0298 39.4698 14.3193 36.1365 14.3193L21.1601 14.3299C20.7958 14.3299 20.5004 14.6252 20.5004 14.9896C20.5004 15.354 20.7958 15.6493 21.1601 15.6493H32.5245L32.3583 17.0624H6.85164L6.77201 16.3857C6.77008 15.9443 6.98857 15.6988 7.42741 15.6493H18.2846C18.6489 15.6493 18.9443 15.354 18.9443 14.9896C18.9443 14.6252 18.6489 14.3299 18.2846 14.3299H7.42741C6.10764 14.3193 5.31953 15.3477 5.46156 16.54L6.71945 27.2306C4.76248 28.3367 4.61588 30.6237 6.00033 32.1308C4.67547 32.648 2.91528 34.494 2.78072 36.1885H0.642957C0.0506618 36.311 -0.132414 36.6527 0.0937282 37.2137L2.01651 40.1028C2.6459 41.0485 3.69979 41.6131 4.83578 41.6131H26.0129C26.3772 41.6131 26.6726 41.3178 26.6726 40.9534C26.6726 40.589 26.3772 40.2937 26.0129 40.2937H4.83578C4.14241 40.2937 3.49905 39.949 3.11497 39.3719L1.87448 37.5079H43.1286L41.8881 39.3719C41.5039 39.949 40.8607 40.2937 40.1673 40.2937H28.8884C28.5241 40.2937 28.2287 40.589 28.2287 40.9534C28.2287 41.3178 28.5241 41.6131 28.8884 41.6131H40.1672C41.3032 41.6131 42.3571 41.0485 42.9865 40.1028L44.9092 37.2137C45.044 37.0112 45.1371 36.1885 44.3601 36.1885ZM33.0655 36.1885H28.5887L30.4796 33.2416C31.3659 33.767 32.7931 34.715 33.0655 36.1885ZM22.8831 36.1885C23.7935 33.6895 25.1686 29.8981 26.1878 27.012C27.3504 27.3631 28.522 27.7976 29.6789 28.3074C30.7386 28.7739 30.8961 30.1473 30.3405 31.0153L27.021 36.1884H22.8831V36.1885ZM15.7093 36.1885C14.7496 33.5627 12.0571 26.0521 12.0513 26.0334C11.7598 24.9644 12.4673 23.8571 13.6534 23.8571H23.5306C24.5699 23.8571 25.4204 25.043 25.1368 26.0196C25.1295 26.0433 22.4282 33.5843 21.4787 36.1884H15.7093V36.1885ZM7.98305 26.6785L7.32713 21.1036H31.8829L31.1069 27.7007C30.8501 27.4526 30.5481 27.2485 30.2109 27.1C28.9902 26.5621 27.7527 26.1042 26.5241 25.7354C26.6452 24.045 25.1745 22.5377 23.5306 22.5377H13.6534C12.0083 22.5377 10.5371 24.0461 10.66 25.7383C9.77119 26.0052 8.87558 26.3198 7.98305 26.6785ZM36.1364 18.392C37.2825 18.392 38.2151 19.3244 38.2151 20.4705V23.0381C38.2151 25.7635 35.9974 27.9807 33.2716 27.9807H32.4024L33.5303 18.392H36.1364ZM32.203 18.3818L32.038 19.7842H7.17191L7.00694 18.3818H32.203ZM7.71455 28.2199C8.80993 27.755 9.9076 27.3438 10.9968 27.0147C12.0023 29.8653 13.386 33.6729 14.3047 36.1885H10.1719L6.85243 31.0154C6.54393 30.5835 6.26497 28.8351 7.71455 28.2199ZM6.71303 33.2415L8.604 36.1884H4.12887C4.34588 35.3163 5.42465 34.0797 6.71303 33.2415Z" fill="#BF9766"/>
<path d="M15.6743 7.44584H26.6025C26.9905 7.44584 27.3062 7.76154 27.3062 8.15494C27.3062 8.54298 26.9905 8.85868 26.6025 8.85868H21.1325C20.0169 8.85868 19.1093 9.76633 19.1093 10.8819V12.2507C19.1093 12.6151 19.4047 12.9104 19.769 12.9104C20.1333 12.9104 20.4287 12.6151 20.4287 12.2507V10.8819C20.4287 10.4938 20.7444 10.1782 21.1324 10.1782H26.6024C27.718 10.1782 28.6256 9.27063 28.6256 8.14967C28.6256 7.03407 27.718 6.12651 26.6024 6.12651H15.6743C15.2828 6.12651 14.9643 5.808 14.9643 5.41645C14.9643 5.02489 15.2828 4.70638 15.6743 4.70638H22.5014C22.8657 4.70638 23.1611 4.41106 23.1611 4.04667C23.1611 3.68228 22.8657 3.38696 22.5014 3.38696H15.6743C14.5552 3.38696 13.6448 4.29742 13.6448 5.41645C13.6448 6.53547 14.5552 7.44584 15.6743 7.44584Z" fill="#BF9766"/>
</svg>
