<svg width="45" height="45" viewBox="0 0 45 45" fill="none" xmlns="http://www.w3.org/2000/svg">
<path d="M44.3408 19.1109H42.2701V15.6744C42.2701 15.3103 41.9751 15.0152 41.6109 15.0152H39.5394V11.5796C39.5394 11.2155 39.2443 10.9204 38.8802 10.9204H33.4204C33.0563 10.9204 32.7612 11.2155 32.7612 11.5796V19.1109H21.1702C20.8061 19.1109 20.511 19.406 20.511 19.7701C20.511 20.1342 20.8061 20.4293 21.1702 20.4293H32.7612V24.5706H12.2389V20.4293H18.2971C18.6612 20.4293 18.9562 20.1342 18.9562 19.7701C18.9562 19.406 18.6612 19.1109 18.2971 19.1109H12.2389V11.5797C12.2389 11.2155 11.9438 10.9205 11.5797 10.9205H6.11956C5.75543 10.9205 5.46038 11.2155 5.46038 11.5797V15.0157H3.38941C3.02528 15.0157 2.73023 15.3107 2.73023 15.6749V19.111H0.65918C0.295049 19.111 0 19.4061 0 19.7702V25.2299C0 25.594 0.295049 25.8891 0.65918 25.8891H2.73023V29.3252C2.73023 29.6894 3.02528 29.9844 3.38941 29.9844H5.46029V33.4204C5.46029 33.7845 5.75534 34.0796 6.11947 34.0796H11.5796C11.9437 34.0796 12.2388 33.7845 12.2388 33.4204V25.8891H32.7612V33.4204C32.7612 33.7845 33.0563 34.0796 33.4204 34.0796H38.8802C39.2443 34.0796 39.5394 33.7845 39.5394 33.4204V29.9848H41.6109C41.9751 29.9848 42.2701 29.6897 42.2701 29.3256V25.8891H44.3408C44.705 25.8891 45 25.594 45 25.2299V19.7701C45 19.4061 44.705 19.1109 44.3408 19.1109ZM1.31836 24.5707V20.4293H2.73023V24.5706H1.31836V24.5707ZM4.04859 28.666V16.334H5.46029V28.6661H4.04859V28.666ZM9.50889 32.7611V26.6546C9.50889 26.2905 9.21384 25.9954 8.84971 25.9954C8.48558 25.9954 8.19053 26.2905 8.19053 26.6546V32.7611H6.77874V12.2389H8.19053V23.7814C8.19053 24.1456 8.48558 24.4406 8.84971 24.4406C9.21384 24.4406 9.50889 24.1456 9.50889 23.7814V12.2389H10.9205V32.7611H9.50889ZM34.0796 12.2388H35.4913V32.7612H34.0796V12.2388ZM40.9518 28.6664H39.5394V23.9361C39.5394 23.572 39.2443 23.277 38.8802 23.277C38.516 23.277 38.221 23.572 38.221 23.9361V32.7612H36.8096V12.2388H38.221V21.0639C38.221 21.428 38.516 21.723 38.8802 21.723C39.2443 21.723 39.5394 21.428 39.5394 21.0639V16.3336H40.9518V28.6664ZM43.6816 24.5707H42.2701V20.4293H43.6816V24.5707Z" fill="#BF9766"/>
</svg>
