<svg width="144" height="128" viewBox="0 0 144 128" fill="none" xmlns="http://www.w3.org/2000/svg">
<g opacity="0.7">
<path d="M6.10442 114.487V102.564H1.40233V99.7929H14.2071V102.564H9.50505V114.487H6.10442ZM19.1646 105.712H26.2387V108.357H19.1646V105.712ZM19.4165 111.758H27.4142V114.487H16.0368V99.7929H27.1414V102.522H19.4165V111.758ZM37.1522 114.739C36.0186 114.739 34.9621 114.557 33.9824 114.193C33.0168 113.815 32.1772 113.283 31.4635 112.598C30.7498 111.912 30.19 111.107 29.7841 110.184C29.3923 109.26 29.1964 108.245 29.1964 107.14C29.1964 106.034 29.3923 105.02 29.7841 104.096C30.19 103.173 30.7498 102.368 31.4635 101.682C32.1912 100.996 33.0378 100.472 34.0034 100.108C34.969 99.7299 36.0256 99.541 37.1732 99.541C38.4466 99.541 39.5942 99.7649 40.6158 100.213C41.6513 100.647 42.519 101.29 43.2187 102.144L41.0356 104.159C40.5318 103.585 39.972 103.159 39.3563 102.879C38.7405 102.585 38.0688 102.438 37.3411 102.438C36.6554 102.438 36.0256 102.55 35.4519 102.774C34.8781 102.998 34.3813 103.319 33.9615 103.739C33.5416 104.159 33.2128 104.656 32.9749 105.23C32.7509 105.803 32.639 106.44 32.639 107.14C32.639 107.84 32.7509 108.476 32.9749 109.05C33.2128 109.624 33.5416 110.121 33.9615 110.541C34.3813 110.96 34.8781 111.282 35.4519 111.506C36.0256 111.73 36.6554 111.842 37.3411 111.842C38.0688 111.842 38.7405 111.702 39.3563 111.422C39.972 111.128 40.5318 110.687 41.0356 110.1L43.2187 112.115C42.519 112.969 41.6513 113.619 40.6158 114.067C39.5942 114.515 38.4396 114.739 37.1522 114.739ZM55.5911 99.7929H58.9917V114.487H55.5911V99.7929ZM48.9158 114.487H45.5151V99.7929H48.9158V114.487ZM55.843 108.462H48.6639V105.587H55.843V108.462ZM62.4682 114.487V99.7929H69.6473C71.4946 99.7929 72.88 100.143 73.8037 100.842C74.7413 101.542 75.2101 102.466 75.2101 103.613C75.2101 104.383 75.0212 105.055 74.6433 105.629C74.2655 106.188 73.7477 106.622 73.0899 106.93C72.4322 107.238 71.6765 107.392 70.8229 107.392L71.2217 106.531C72.1453 106.531 72.964 106.685 73.6777 106.993C74.3914 107.287 74.9442 107.728 75.336 108.315C75.7419 108.903 75.9448 109.624 75.9448 110.478C75.9448 111.737 75.448 112.724 74.4544 113.437C73.4608 114.137 71.9984 114.487 70.0672 114.487H62.4682ZM65.8479 111.926H69.8153C70.6969 111.926 71.3616 111.786 71.8095 111.506C72.2713 111.212 72.5022 110.75 72.5022 110.121C72.5022 109.505 72.2713 109.05 71.8095 108.756C71.3616 108.448 70.6969 108.294 69.8153 108.294H65.596V105.817H69.2275C70.0532 105.817 70.6829 105.678 71.1167 105.398C71.5646 105.104 71.7885 104.663 71.7885 104.075C71.7885 103.501 71.5646 103.075 71.1167 102.795C70.6829 102.501 70.0532 102.354 69.2275 102.354H65.8479V111.926ZM78.5194 114.487V99.7929H84.8798C86.1953 99.7929 87.3288 100.01 88.2804 100.444C89.232 100.863 89.9667 101.472 90.4845 102.27C91.0023 103.068 91.2612 104.019 91.2612 105.125C91.2612 106.216 91.0023 107.161 90.4845 107.959C89.9667 108.742 89.232 109.344 88.2804 109.764C87.3288 110.184 86.1953 110.394 84.8798 110.394H80.4086L81.92 108.903V114.487H78.5194ZM87.8606 114.487L84.1871 109.155H87.8186L91.5341 114.487H87.8606ZM81.92 109.281L80.4086 107.686H84.6909C85.7404 107.686 86.5241 107.462 87.0419 107.014C87.5597 106.552 87.8186 105.922 87.8186 105.125C87.8186 104.313 87.5597 103.683 87.0419 103.235C86.5241 102.788 85.7404 102.564 84.6909 102.564H80.4086L81.92 100.947V109.281ZM92.0243 114.487L98.5736 99.7929H101.932L108.503 114.487H104.934L99.5602 101.514H100.904L95.5089 114.487H92.0243ZM95.2989 111.338L96.2016 108.756H103.759L104.682 111.338H95.2989ZM110.027 114.487V99.7929H112.84L121.509 110.373H120.145V99.7929H123.504V114.487H120.712L112.021 103.907H113.386V114.487H110.027ZM126.98 114.487V99.7929H133.656C135.251 99.7929 136.657 100.101 137.875 100.717C139.092 101.318 140.044 102.165 140.73 103.256C141.415 104.348 141.758 105.643 141.758 107.14C141.758 108.623 141.415 109.918 140.73 111.023C140.044 112.115 139.092 112.969 137.875 113.584C136.657 114.186 135.251 114.487 133.656 114.487H126.98ZM130.381 111.695H133.488C134.467 111.695 135.314 111.513 136.028 111.149C136.755 110.771 137.315 110.24 137.707 109.554C138.113 108.868 138.316 108.064 138.316 107.14C138.316 106.202 138.113 105.398 137.707 104.726C137.315 104.04 136.755 103.515 136.028 103.152C135.314 102.774 134.467 102.585 133.488 102.585H130.381V111.695Z" fill="#BDBDBD"/>
<path d="M3.06491 125.964V123.109L3.43418 124.087L0.360277 118.977H2.07687L4.4322 122.9H3.44416L5.80947 118.977H7.39632L4.32242 124.087L4.6817 123.109V125.964H3.06491ZM11.1639 126.083C10.6117 126.083 10.0994 125.994 9.62697 125.814C9.16123 125.634 8.75537 125.381 8.40939 125.055C8.07006 124.729 7.80392 124.347 7.61097 123.908C7.42467 123.469 7.33152 122.99 7.33152 122.471C7.33152 121.952 7.42467 121.473 7.61097 121.033C7.80392 120.594 8.07339 120.212 8.41937 119.886C8.76535 119.56 9.17121 119.307 9.63695 119.127C10.1027 118.948 10.6084 118.858 11.1539 118.858C11.7062 118.858 12.2118 118.948 12.6709 119.127C13.1367 119.307 13.5392 119.56 13.8785 119.886C14.2245 120.212 14.494 120.594 14.6869 121.033C14.8799 121.466 14.9764 121.945 14.9764 122.471C14.9764 122.99 14.8799 123.472 14.6869 123.918C14.494 124.357 14.2245 124.739 13.8785 125.065C13.5392 125.385 13.1367 125.634 12.6709 125.814C12.2118 125.994 11.7095 126.083 11.1639 126.083ZM11.1539 124.706C11.4667 124.706 11.7528 124.653 12.0122 124.546C12.2784 124.44 12.5112 124.287 12.7109 124.087C12.9105 123.888 13.0635 123.652 13.1699 123.379C13.2831 123.106 13.3396 122.803 13.3396 122.471C13.3396 122.138 13.2831 121.835 13.1699 121.562C13.0635 121.29 12.9105 121.053 12.7109 120.854C12.5179 120.654 12.2884 120.501 12.0222 120.395C11.7561 120.288 11.4667 120.235 11.1539 120.235C10.8412 120.235 10.5518 120.288 10.2857 120.395C10.0262 120.501 9.79663 120.654 9.59703 120.854C9.39743 121.053 9.24107 121.29 9.12796 121.562C9.02151 121.835 8.96828 122.138 8.96828 122.471C8.96828 122.797 9.02151 123.099 9.12796 123.379C9.24107 123.652 9.3941 123.888 9.58705 124.087C9.78665 124.287 10.0195 124.44 10.2857 124.546C10.5518 124.653 10.8412 124.706 11.1539 124.706ZM19.2953 126.083C18.3039 126.083 17.5288 125.807 16.9699 125.255C16.411 124.703 16.1316 123.914 16.1316 122.89V118.977H17.7484V122.83C17.7484 123.495 17.8848 123.974 18.1575 124.267C18.4303 124.56 18.8129 124.706 19.3053 124.706C19.7976 124.706 20.1802 124.56 20.453 124.267C20.7258 123.974 20.8622 123.495 20.8622 122.83V118.977H22.459V122.89C22.459 123.914 22.1796 124.703 21.6207 125.255C21.0618 125.807 20.2867 126.083 19.2953 126.083ZM24.0567 125.964V118.977H27.0807C27.7061 118.977 28.2451 119.081 28.6975 119.287C29.1499 119.486 29.4992 119.776 29.7454 120.155C29.9916 120.534 30.1147 120.987 30.1147 121.512C30.1147 122.031 29.9916 122.481 29.7454 122.86C29.4992 123.232 29.1499 123.518 28.6975 123.718C28.2451 123.918 27.7061 124.017 27.0807 124.017H24.9549L25.6735 123.309V125.964H24.0567ZM28.4979 125.964L26.7514 123.429H28.4779L30.2444 125.964H28.4979ZM25.6735 123.489L24.9549 122.73H26.9909C27.4899 122.73 27.8625 122.624 28.1087 122.411C28.3548 122.191 28.4779 121.892 28.4779 121.512C28.4779 121.127 28.3548 120.827 28.1087 120.614C27.8625 120.401 27.4899 120.295 26.9909 120.295H24.9549L25.6735 119.526V123.489ZM35.6692 125.964V120.295H33.4336V118.977H39.5216V120.295H37.286V125.964H35.6692ZM39.1224 125.964L42.2363 118.977H43.8331L46.9569 125.964H45.2603L42.7053 119.796H43.3441L40.7792 125.964H39.1224ZM40.6794 124.467L41.1085 123.239H44.7014L45.1405 124.467H40.6794ZM50.9576 126.083C50.4053 126.083 49.8963 125.997 49.4306 125.824C48.9715 125.644 48.569 125.391 48.223 125.065C47.8836 124.739 47.6175 124.357 47.4246 123.918C47.2383 123.479 47.1451 122.996 47.1451 122.471C47.1451 121.945 47.2383 121.463 47.4246 121.023C47.6175 120.584 47.887 120.202 48.233 119.876C48.5789 119.55 48.9848 119.3 49.4505 119.127C49.9163 118.948 50.4286 118.858 50.9875 118.858C51.6063 118.858 52.1618 118.961 52.6542 119.167C53.1532 119.373 53.5724 119.673 53.9117 120.065L52.8737 121.023C52.6209 120.757 52.3448 120.561 52.0454 120.435C51.746 120.302 51.42 120.235 51.0673 120.235C50.728 120.235 50.4186 120.288 50.1392 120.395C49.8597 120.501 49.6169 120.654 49.4106 120.854C49.211 121.053 49.0547 121.29 48.9415 121.562C48.8351 121.835 48.7819 122.138 48.7819 122.471C48.7819 122.797 48.8351 123.096 48.9415 123.369C49.0547 123.642 49.211 123.881 49.4106 124.087C49.6169 124.287 49.8564 124.44 50.1292 124.546C50.4086 124.653 50.7147 124.706 51.0474 124.706C51.3667 124.706 51.6761 124.656 51.9755 124.556C52.2816 124.45 52.5777 124.274 52.8638 124.027L53.7819 125.195C53.4027 125.481 52.9602 125.701 52.4546 125.854C51.9556 126.007 51.4566 126.083 50.9576 126.083ZM52.3049 124.986V122.361H53.7819V125.195L52.3049 124.986ZM55.2838 125.964V118.977H56.9006V124.646H60.4037V125.964H55.2838ZM61.307 125.964V118.977H62.9238V125.964H61.307ZM64.5818 125.964V118.977H65.9191L70.0409 124.008H69.3922V118.977H70.9891V125.964H69.6617L65.5299 120.934H66.1786V125.964H64.5818ZM74.129 121.792H77.4923V123.049H74.129V121.792ZM74.2488 124.666H78.0512V125.964H72.642V118.977H77.9215V120.275H74.2488V124.666ZM85.5374 126.083C84.9852 126.083 84.4762 125.997 84.0104 125.824C83.5513 125.644 83.1488 125.391 82.8028 125.065C82.4635 124.739 82.1973 124.357 82.0044 123.918C81.8181 123.479 81.725 122.996 81.725 122.471C81.725 121.945 81.8181 121.463 82.0044 121.023C82.1973 120.584 82.4668 120.202 82.8128 119.876C83.1588 119.55 83.5646 119.3 84.0304 119.127C84.4961 118.948 85.0084 118.858 85.5673 118.858C86.1861 118.858 86.7417 118.961 87.234 119.167C87.733 119.373 88.1522 119.673 88.4915 120.065L87.4536 121.023C87.2008 120.757 86.9246 120.561 86.6252 120.435C86.3258 120.302 85.9998 120.235 85.6472 120.235C85.3078 120.235 84.9985 120.288 84.719 120.395C84.4396 120.501 84.1967 120.654 83.9905 120.854C83.7909 121.053 83.6345 121.29 83.5214 121.562C83.4149 121.835 83.3617 122.138 83.3617 122.471C83.3617 122.797 83.4149 123.096 83.5214 123.369C83.6345 123.642 83.7909 123.881 83.9905 124.087C84.1967 124.287 84.4362 124.44 84.709 124.546C84.9885 124.653 85.2945 124.706 85.6272 124.706C85.9466 124.706 86.256 124.656 86.5554 124.556C86.8614 124.45 87.1575 124.274 87.4436 124.027L88.3618 125.195C87.9825 125.481 87.5401 125.701 87.0344 125.854C86.5354 126.007 86.0364 126.083 85.5374 126.083ZM86.8847 124.986V122.361H88.3618V125.195L86.8847 124.986ZM93.2569 126.083C92.7047 126.083 92.1924 125.994 91.72 125.814C91.2542 125.634 90.8484 125.381 90.5024 125.055C90.163 124.729 89.8969 124.347 89.704 123.908C89.5177 123.469 89.4245 122.99 89.4245 122.471C89.4245 121.952 89.5177 121.473 89.704 121.033C89.8969 120.594 90.1664 120.212 90.5124 119.886C90.8583 119.56 91.2642 119.307 91.7299 119.127C92.1957 118.948 92.7013 118.858 93.2469 118.858C93.7992 118.858 94.3048 118.948 94.7639 119.127C95.2297 119.307 95.6322 119.56 95.9715 119.886C96.3175 120.212 96.587 120.594 96.7799 121.033C96.9729 121.466 97.0693 121.945 97.0693 122.471C97.0693 122.99 96.9729 123.472 96.7799 123.918C96.587 124.357 96.3175 124.739 95.9715 125.065C95.6322 125.385 95.2297 125.634 94.7639 125.814C94.3048 125.994 93.8025 126.083 93.2569 126.083ZM93.2469 124.706C93.5596 124.706 93.8457 124.653 94.1052 124.546C94.3714 124.44 94.6042 124.287 94.8038 124.087C95.0034 123.888 95.1565 123.652 95.2629 123.379C95.376 123.106 95.4326 122.803 95.4326 122.471C95.4326 122.138 95.376 121.835 95.2629 121.562C95.1565 121.29 95.0034 121.053 94.8038 120.854C94.6109 120.654 94.3813 120.501 94.1152 120.395C93.8491 120.288 93.5596 120.235 93.2469 120.235C92.9342 120.235 92.6448 120.288 92.3787 120.395C92.1192 120.501 91.8896 120.654 91.69 120.854C91.4904 121.053 91.3341 121.29 91.2209 121.562C91.1145 121.835 91.0613 122.138 91.0613 122.471C91.0613 122.797 91.1145 123.099 91.2209 123.379C91.3341 123.652 91.4871 123.888 91.68 124.087C91.8796 124.287 92.1125 124.44 92.3787 124.546C92.6448 124.653 92.9342 124.706 93.2469 124.706ZM99.7715 121.792H103.135V123.049H99.7715V121.792ZM99.8913 124.666H103.694V125.964H98.2844V118.977H103.564V120.275H99.8913V124.666ZM107.276 126.083C106.717 126.083 106.181 126.01 105.669 125.864C105.156 125.711 104.744 125.515 104.431 125.275L104.98 124.057C105.28 124.27 105.632 124.447 106.038 124.586C106.451 124.719 106.866 124.786 107.286 124.786C107.605 124.786 107.861 124.756 108.054 124.696C108.254 124.63 108.4 124.54 108.493 124.427C108.586 124.314 108.633 124.184 108.633 124.037C108.633 123.851 108.56 123.705 108.413 123.598C108.267 123.485 108.074 123.395 107.834 123.329C107.595 123.256 107.329 123.189 107.036 123.129C106.75 123.063 106.461 122.983 106.168 122.89C105.882 122.797 105.619 122.677 105.379 122.53C105.14 122.384 104.944 122.191 104.791 121.952C104.644 121.712 104.571 121.406 104.571 121.033C104.571 120.634 104.677 120.272 104.89 119.946C105.11 119.613 105.436 119.35 105.868 119.157C106.308 118.958 106.856 118.858 107.515 118.858C107.954 118.858 108.387 118.911 108.813 119.017C109.238 119.117 109.614 119.27 109.94 119.476L109.441 120.704C109.115 120.518 108.789 120.381 108.463 120.295C108.137 120.202 107.818 120.155 107.505 120.155C107.192 120.155 106.936 120.192 106.737 120.265C106.537 120.338 106.394 120.435 106.308 120.554C106.221 120.667 106.178 120.801 106.178 120.954C106.178 121.133 106.251 121.28 106.397 121.393C106.544 121.499 106.737 121.586 106.976 121.652C107.216 121.719 107.479 121.785 107.765 121.852C108.057 121.918 108.347 121.995 108.633 122.081C108.926 122.168 109.192 122.284 109.431 122.431C109.671 122.577 109.864 122.77 110.01 123.009C110.163 123.249 110.24 123.552 110.24 123.918C110.24 124.31 110.13 124.67 109.91 124.996C109.691 125.322 109.361 125.584 108.922 125.784C108.49 125.984 107.941 126.083 107.276 126.083ZM118.961 118.977H120.578V125.964H118.961V118.977ZM115.788 125.964H114.171V118.977H115.788V125.964ZM119.081 123.099H115.668V121.732H119.081V123.099ZM123.718 121.792H127.081V123.049H123.718V121.792ZM123.838 124.666H127.64V125.964H122.231V118.977H127.511V120.275H123.838V124.666ZM128.927 125.964V118.977H131.951C132.576 118.977 133.115 119.081 133.568 119.287C134.02 119.486 134.369 119.776 134.615 120.155C134.862 120.534 134.985 120.987 134.985 121.512C134.985 122.031 134.862 122.481 134.615 122.86C134.369 123.232 134.02 123.518 133.568 123.718C133.115 123.918 132.576 124.017 131.951 124.017H129.825L130.544 123.309V125.964H128.927ZM133.368 125.964L131.621 123.429H133.348L135.114 125.964H133.368ZM130.544 123.489L129.825 122.73H131.861C132.36 122.73 132.733 122.624 132.979 122.411C133.225 122.191 133.348 121.892 133.348 121.512C133.348 121.127 133.225 120.827 132.979 120.614C132.733 120.401 132.36 120.295 131.861 120.295H129.825L130.544 119.526V123.489ZM137.753 121.792H141.116V123.049H137.753V121.792ZM137.873 124.666H141.675V125.964H136.266V118.977H141.545V120.275H137.873V124.666Z" fill="#BDBDBD"/>
</g>
<path d="M27.6072 41.1C28.1072 41.5 28.6072 41.9 29.1072 42.3C29.6072 42.7 30.2072 43 30.7072 43.4C31.3072 43.8 31.9072 44.1 32.5072 44.4C33.1072 44.7 33.7072 45 34.4072 45.3C35.7072 45.8 37.1072 46.3 38.5072 46.5C39.9072 46.8 41.4072 46.9 42.9072 46.9C44.4072 46.9 45.9072 46.7 47.3072 46.4C47.8072 46.3 48.2072 46.2 48.6072 46C47.5072 43.8 46.9072 41.4 46.9072 38.8C46.9072 34.8 48.3072 31.2 50.6072 28.4C50.1072 27.6 49.6072 26.8 49.1072 26C48.2072 24.4 47.5072 22.7 46.9072 20.8C46.3072 18.9 45.9072 16.9 45.7072 14.9C45.5072 12.9 45.5072 10.8 45.7072 8.80003C45.8072 7.80003 46.0072 6.80003 46.2072 5.80003C46.3072 5.50003 46.3072 5.20002 46.4072 4.90002C34.0072 11.1 25.4072 24 25.4072 38.9C25.4072 39 25.4072 39.2 25.4072 39.3C26.1072 39.8 26.8072 40.4 27.6072 41.1Z" fill="#BDBDBD"/>
<path d="M63.0074 0.800049C62.8074 1.00005 62.5074 1.20005 62.3074 1.50005C61.5074 2.30005 60.7074 3.20005 59.9074 4.10005C59.5074 4.60005 59.1074 5.10005 58.7074 5.60005C58.3074 6.10005 58.0074 6.70005 57.6074 7.20005C57.2074 7.80005 56.9074 8.40005 56.6074 9.00005C56.3074 9.60005 56.0074 10.2 55.7074 10.9C55.2074 12.2 54.7074 13.6 54.5074 15C54.2074 16.4 54.1074 17.9 54.1074 19.4C54.1074 20.9 54.3074 22.4 54.6074 23.8C54.7074 24.1 54.8074 24.4001 54.8074 24.7001C57.3074 23.2001 60.2074 22.3 63.3074 22.3C67.4074 22.3 71.2074 23.8 74.0074 26.3C74.3074 26.1 74.6074 25.9001 75.0074 25.7001C76.6074 24.8001 78.3074 24.1 80.2074 23.5C82.1074 22.9 84.1074 22.5 86.1074 22.3C88.1074 22.1 90.2074 22.1 92.2074 22.3C93.2074 22.4 94.2074 22.6 95.2074 22.8C96.1074 23 97.1074 23.2 98.0074 23.5C92.1074 10.2 78.8074 0.900047 63.2074 0.900047C63.3074 0.800047 63.2074 0.800049 63.0074 0.800049Z" fill="#BDBDBD"/>
<path d="M62.2074 76.1C63.0074 75.3 63.8074 74.4 64.6074 73.5C65.0074 73 65.4074 72.5 65.8074 72C66.2074 71.5 66.5074 70.9 66.9074 70.4C67.3074 69.8 67.6074 69.2 67.9074 68.6C68.2074 68 68.5074 67.4 68.8074 66.7C69.3074 65.4 69.8074 64 70.0074 62.6C70.3074 61.2 70.4074 59.7 70.4074 58.2C70.4074 56.8 70.2074 55.4 69.9074 54C67.9074 54.8 65.7074 55.3 63.5074 55.3C58.9074 55.3 54.8074 53.4 51.8074 50.5C51.1074 51 50.3074 51.5 49.5074 51.9C47.9074 52.8 46.2074 53.5 44.3074 54.1C42.4074 54.7 40.4074 55.1 38.4074 55.3C36.4074 55.5 34.3074 55.5 32.3074 55.3C31.3074 55.2 30.3074 55 29.3074 54.8C29.2074 54.8 29.2074 54.8 29.1074 54.8C34.9074 67.2 47.2074 76 61.7074 76.8C61.7074 76.5 61.9074 76.3 62.2074 76.1Z" fill="#BDBDBD"/>
<path d="M100.708 40.0001C100.308 39.6001 100.008 39.3001 99.6076 38.9001C98.8076 38.1001 97.9076 37.3001 97.0076 36.5001C96.5076 36.1001 96.0076 35.7001 95.5076 35.3001C95.0076 34.9001 94.4076 34.6001 93.9076 34.2001C93.3076 33.8001 92.7076 33.5001 92.1076 33.2001C91.5076 32.9001 90.9076 32.6001 90.2076 32.3001C88.9076 31.8001 87.5076 31.3001 86.1076 31.1001C84.7076 30.8001 83.2076 30.7001 81.7076 30.7001C80.5076 30.7001 79.3076 30.9001 78.0076 31.1001C79.2076 33.4001 79.9076 36.0001 79.9076 38.8001C79.9076 43.5001 77.9076 47.7001 74.8076 50.7001C75.0076 51.0001 75.2076 51.3001 75.3076 51.6001C76.2076 53.2001 76.9076 54.9001 77.5076 56.8001C78.1076 58.7001 78.5076 60.7001 78.7076 62.7001C78.9076 64.7001 78.9076 66.8001 78.7076 68.8001C78.6076 69.8001 78.4076 70.8001 78.2076 71.8001C78.0076 72.5001 77.9076 73.2001 77.7076 73.9001C91.0076 68.5001 100.508 55.8001 101.208 40.7001C101.108 40.5001 100.908 40.3001 100.708 40.0001Z" fill="#BDBDBD"/>
<path d="M63.4072 44.7001C66.7209 44.7001 69.4072 42.0138 69.4072 38.7001C69.4072 35.3864 66.7209 32.7001 63.4072 32.7001C60.0935 32.7001 57.4072 35.3864 57.4072 38.7001C57.4072 42.0138 60.0935 44.7001 63.4072 44.7001Z" fill="#BDBDBD"/>
</svg>
