<svg width="144" height="138" viewBox="0 0 144 138" fill="none" xmlns="http://www.w3.org/2000/svg">
<g opacity="0.7">
<path d="M6.60442 123.836V111.912H1.90233V109.142H14.7071V111.912H10.005V123.836H6.60442ZM19.6646 115.061H26.7387V117.706H19.6646V115.061ZM19.9165 121.107H27.9142V123.836H16.5368V109.142H27.6414V111.87H19.9165V121.107ZM37.6522 124.087C36.5186 124.087 35.4621 123.906 34.4824 123.542C33.5168 123.164 32.6772 122.632 31.9635 121.946C31.2498 121.261 30.69 120.456 30.2841 119.532C29.8923 118.609 29.6964 117.594 29.6964 116.489C29.6964 115.383 29.8923 114.368 30.2841 113.445C30.69 112.521 31.2498 111.716 31.9635 111.031C32.6912 110.345 33.5378 109.82 34.5034 109.456C35.469 109.079 36.5256 108.89 37.6732 108.89C38.9466 108.89 40.0942 109.114 41.1158 109.561C42.1513 109.995 43.019 110.639 43.7187 111.493L41.5356 113.508C41.0318 112.934 40.472 112.507 39.8563 112.227C39.2405 111.933 38.5688 111.786 37.8411 111.786C37.1554 111.786 36.5256 111.898 35.9519 112.122C35.3781 112.346 34.8813 112.668 34.4615 113.088C34.0416 113.508 33.7128 114.005 33.4749 114.578C33.2509 115.152 33.139 115.789 33.139 116.489C33.139 117.188 33.2509 117.825 33.4749 118.399C33.7128 118.973 34.0416 119.469 34.4615 119.889C34.8813 120.309 35.3781 120.631 35.9519 120.855C36.5256 121.079 37.1554 121.191 37.8411 121.191C38.5688 121.191 39.2405 121.051 39.8563 120.771C40.472 120.477 41.0318 120.036 41.5356 119.448L43.7187 121.464C43.019 122.317 42.1513 122.968 41.1158 123.416C40.0942 123.864 38.9396 124.087 37.6522 124.087ZM56.0911 109.142H59.4917V123.836H56.0911V109.142ZM49.4158 123.836H46.0151V109.142H49.4158V123.836ZM56.343 117.811H49.1639V114.935H56.343V117.811ZM62.9682 123.836V109.142H70.1473C71.9946 109.142 73.38 109.491 74.3037 110.191C75.2413 110.891 75.7101 111.814 75.7101 112.962C75.7101 113.732 75.5212 114.403 75.1433 114.977C74.7655 115.537 74.2477 115.971 73.5899 116.279C72.9322 116.587 72.1765 116.74 71.3229 116.74L71.7217 115.88C72.6453 115.88 73.464 116.034 74.1777 116.342C74.8914 116.635 75.4442 117.076 75.836 117.664C76.2419 118.252 76.4448 118.973 76.4448 119.826C76.4448 121.086 75.948 122.072 74.9544 122.786C73.9608 123.486 72.4984 123.836 70.5672 123.836H62.9682ZM66.3479 121.275H70.3153C71.1969 121.275 71.8616 121.135 72.3095 120.855C72.7713 120.561 73.0022 120.099 73.0022 119.469C73.0022 118.854 72.7713 118.399 72.3095 118.105C71.8616 117.797 71.1969 117.643 70.3153 117.643H66.096V115.166H69.7275C70.5532 115.166 71.1829 115.026 71.6167 114.746C72.0646 114.452 72.2885 114.012 72.2885 113.424C72.2885 112.85 72.0646 112.423 71.6167 112.143C71.1829 111.849 70.5532 111.702 69.7275 111.702H66.3479V121.275ZM79.0194 123.836V109.142H85.3798C86.6953 109.142 87.8288 109.358 88.7804 109.792C89.732 110.212 90.4667 110.821 90.9845 111.619C91.5023 112.416 91.7612 113.368 91.7612 114.473C91.7612 115.565 91.5023 116.51 90.9845 117.307C90.4667 118.091 89.732 118.693 88.7804 119.112C87.8288 119.532 86.6953 119.742 85.3798 119.742H80.9086L82.42 118.252V123.836H79.0194ZM88.3606 123.836L84.6871 118.504H88.3186L92.0341 123.836H88.3606ZM82.42 118.63L80.9086 117.034H85.1909C86.2404 117.034 87.0241 116.81 87.5419 116.363C88.0597 115.901 88.3186 115.271 88.3186 114.473C88.3186 113.662 88.0597 113.032 87.5419 112.584C87.0241 112.136 86.2404 111.912 85.1909 111.912H80.9086L82.42 110.296V118.63ZM92.5243 123.836L99.0736 109.142H102.432L109.003 123.836H105.434L100.06 110.863H101.404L96.0089 123.836H92.5243ZM95.7989 120.687L96.7016 118.105H104.259L105.182 120.687H95.7989ZM110.527 123.836V109.142H113.34L122.009 119.721H120.645V109.142H124.004V123.836H121.212L112.521 113.256H113.886V123.836H110.527ZM127.48 123.836V109.142H134.156C135.751 109.142 137.157 109.449 138.375 110.065C139.592 110.667 140.544 111.514 141.23 112.605C141.915 113.697 142.258 114.991 142.258 116.489C142.258 117.972 141.915 119.266 141.23 120.372C140.544 121.464 139.592 122.317 138.375 122.933C137.157 123.535 135.751 123.836 134.156 123.836H127.48ZM130.881 121.044H133.988C134.967 121.044 135.814 120.862 136.528 120.498C137.255 120.12 137.815 119.588 138.207 118.903C138.613 118.217 138.816 117.412 138.816 116.489C138.816 115.551 138.613 114.746 138.207 114.075C137.815 113.389 137.255 112.864 136.528 112.5C135.814 112.122 134.967 111.933 133.988 111.933H130.881V121.044Z" fill="#BDBDBD"/>
<path d="M3.56491 135.312V132.458L3.93418 133.436L0.860277 128.326H2.57687L4.9322 132.248H3.94416L6.30947 128.326H7.89632L4.82242 133.436L5.1817 132.458V135.312H3.56491ZM11.6639 135.432C11.1117 135.432 10.5994 135.342 10.127 135.163C9.66123 134.983 9.25537 134.73 8.90939 134.404C8.57006 134.078 8.30392 133.696 8.11097 133.256C7.92467 132.817 7.83152 132.338 7.83152 131.819C7.83152 131.3 7.92467 130.821 8.11097 130.382C8.30392 129.943 8.57339 129.56 8.91937 129.234C9.26535 128.908 9.67121 128.656 10.137 128.476C10.6027 128.296 11.1084 128.206 11.6539 128.206C12.2062 128.206 12.7118 128.296 13.1709 128.476C13.6367 128.656 14.0392 128.908 14.3785 129.234C14.7245 129.56 14.994 129.943 15.1869 130.382C15.3799 130.815 15.4764 131.294 15.4764 131.819C15.4764 132.338 15.3799 132.821 15.1869 133.266C14.994 133.706 14.7245 134.088 14.3785 134.414C14.0392 134.734 13.6367 134.983 13.1709 135.163C12.7118 135.342 12.2095 135.432 11.6639 135.432ZM11.6539 134.055C11.9667 134.055 12.2528 134.002 12.5122 133.895C12.7784 133.789 13.0112 133.636 13.2109 133.436C13.4105 133.236 13.5635 133 13.6699 132.728C13.7831 132.455 13.8396 132.152 13.8396 131.819C13.8396 131.487 13.7831 131.184 13.6699 130.911C13.5635 130.638 13.4105 130.402 13.2109 130.203C13.0179 130.003 12.7884 129.85 12.5222 129.743C12.2561 129.637 11.9667 129.584 11.6539 129.584C11.3412 129.584 11.0518 129.637 10.7857 129.743C10.5262 129.85 10.2966 130.003 10.097 130.203C9.89743 130.402 9.74107 130.638 9.62796 130.911C9.52151 131.184 9.46828 131.487 9.46828 131.819C9.46828 132.145 9.52151 132.448 9.62796 132.728C9.74107 133 9.8941 133.236 10.0871 133.436C10.2867 133.636 10.5195 133.789 10.7857 133.895C11.0518 134.002 11.3412 134.055 11.6539 134.055ZM19.7953 135.432C18.8039 135.432 18.0288 135.156 17.4699 134.604C16.911 134.052 16.6316 133.263 16.6316 132.238V128.326H18.2484V132.179C18.2484 132.844 18.3848 133.323 18.6575 133.616C18.9303 133.908 19.3129 134.055 19.8053 134.055C20.2976 134.055 20.6802 133.908 20.953 133.616C21.2258 133.323 21.3622 132.844 21.3622 132.179V128.326H22.959V132.238C22.959 133.263 22.6796 134.052 22.1207 134.604C21.5618 135.156 20.7867 135.432 19.7953 135.432ZM24.5567 135.312V128.326H27.5807C28.2061 128.326 28.7451 128.429 29.1975 128.636C29.6499 128.835 29.9992 129.125 30.2454 129.504C30.4916 129.883 30.6147 130.336 30.6147 130.861C30.6147 131.38 30.4916 131.829 30.2454 132.209C29.9992 132.581 29.6499 132.867 29.1975 133.067C28.7451 133.266 28.2061 133.366 27.5807 133.366H25.4549L26.1735 132.658V135.312H24.5567ZM28.9979 135.312L27.2514 132.777H28.9779L30.7444 135.312H28.9979ZM26.1735 132.837L25.4549 132.079H27.4909C27.9899 132.079 28.3625 131.972 28.6087 131.759C28.8548 131.54 28.9779 131.24 28.9779 130.861C28.9779 130.475 28.8548 130.176 28.6087 129.963C28.3625 129.75 27.9899 129.644 27.4909 129.644H25.4549L26.1735 128.875V132.837ZM36.1692 135.312V129.644H33.9336V128.326H40.0216V129.644H37.786V135.312H36.1692ZM39.6224 135.312L42.7363 128.326H44.3331L47.4569 135.312H45.7603L43.2053 129.145H43.8441L41.2792 135.312H39.6224ZM41.1794 133.815L41.6085 132.588H45.2014L45.6405 133.815H41.1794ZM51.4576 135.432C50.9053 135.432 50.3963 135.346 49.9306 135.173C49.4715 134.993 49.069 134.74 48.723 134.414C48.3836 134.088 48.1175 133.706 47.9246 133.266C47.7383 132.827 47.6451 132.345 47.6451 131.819C47.6451 131.294 47.7383 130.811 47.9246 130.372C48.1175 129.933 48.387 129.55 48.733 129.224C49.0789 128.898 49.4848 128.649 49.9505 128.476C50.4163 128.296 50.9286 128.206 51.4875 128.206C52.1063 128.206 52.6618 128.31 53.1542 128.516C53.6532 128.722 54.0724 129.022 54.4117 129.414L53.3737 130.372C53.1209 130.106 52.8448 129.91 52.5454 129.783C52.246 129.65 51.92 129.584 51.5673 129.584C51.228 129.584 50.9186 129.637 50.6392 129.743C50.3597 129.85 50.1169 130.003 49.9106 130.203C49.711 130.402 49.5547 130.638 49.4415 130.911C49.3351 131.184 49.2819 131.487 49.2819 131.819C49.2819 132.145 49.3351 132.445 49.4415 132.718C49.5547 132.99 49.711 133.23 49.9106 133.436C50.1169 133.636 50.3564 133.789 50.6292 133.895C50.9086 134.002 51.2147 134.055 51.5474 134.055C51.8667 134.055 52.1761 134.005 52.4755 133.905C52.7816 133.799 53.0777 133.622 53.3638 133.376L54.2819 134.544C53.9027 134.83 53.4602 135.05 52.9546 135.203C52.4556 135.356 51.9566 135.432 51.4576 135.432ZM52.8049 134.334V131.71H54.2819V134.544L52.8049 134.334ZM55.7838 135.312V128.326H57.4006V133.995H60.9037V135.312H55.7838ZM61.807 135.312V128.326H63.4238V135.312H61.807ZM65.0818 135.312V128.326H66.4191L70.5409 133.356H69.8922V128.326H71.4891V135.312H70.1617L66.0299 130.282H66.6786V135.312H65.0818ZM74.629 131.141H77.9923V132.398H74.629V131.141ZM74.7488 134.015H78.5512V135.312H73.142V128.326H78.4215V129.624H74.7488V134.015ZM86.0374 135.432C85.4852 135.432 84.9762 135.346 84.5104 135.173C84.0513 134.993 83.6488 134.74 83.3028 134.414C82.9635 134.088 82.6973 133.706 82.5044 133.266C82.3181 132.827 82.225 132.345 82.225 131.819C82.225 131.294 82.3181 130.811 82.5044 130.372C82.6973 129.933 82.9668 129.55 83.3128 129.224C83.6588 128.898 84.0646 128.649 84.5304 128.476C84.9961 128.296 85.5084 128.206 86.0673 128.206C86.6861 128.206 87.2417 128.31 87.734 128.516C88.233 128.722 88.6522 129.022 88.9915 129.414L87.9536 130.372C87.7008 130.106 87.4246 129.91 87.1252 129.783C86.8258 129.65 86.4998 129.584 86.1472 129.584C85.8078 129.584 85.4985 129.637 85.219 129.743C84.9396 129.85 84.6967 130.003 84.4905 130.203C84.2909 130.402 84.1345 130.638 84.0214 130.911C83.9149 131.184 83.8617 131.487 83.8617 131.819C83.8617 132.145 83.9149 132.445 84.0214 132.718C84.1345 132.99 84.2909 133.23 84.4905 133.436C84.6967 133.636 84.9362 133.789 85.209 133.895C85.4885 134.002 85.7945 134.055 86.1272 134.055C86.4466 134.055 86.756 134.005 87.0554 133.905C87.3614 133.799 87.6575 133.622 87.9436 133.376L88.8618 134.544C88.4825 134.83 88.0401 135.05 87.5344 135.203C87.0354 135.356 86.5364 135.432 86.0374 135.432ZM87.3847 134.334V131.71H88.8618V134.544L87.3847 134.334ZM93.7569 135.432C93.2047 135.432 92.6924 135.342 92.22 135.163C91.7542 134.983 91.3484 134.73 91.0024 134.404C90.663 134.078 90.3969 133.696 90.204 133.256C90.0177 132.817 89.9245 132.338 89.9245 131.819C89.9245 131.3 90.0177 130.821 90.204 130.382C90.3969 129.943 90.6664 129.56 91.0124 129.234C91.3583 128.908 91.7642 128.656 92.2299 128.476C92.6957 128.296 93.2013 128.206 93.7469 128.206C94.2992 128.206 94.8048 128.296 95.2639 128.476C95.7297 128.656 96.1322 128.908 96.4715 129.234C96.8175 129.56 97.087 129.943 97.2799 130.382C97.4729 130.815 97.5693 131.294 97.5693 131.819C97.5693 132.338 97.4729 132.821 97.2799 133.266C97.087 133.706 96.8175 134.088 96.4715 134.414C96.1322 134.734 95.7297 134.983 95.2639 135.163C94.8048 135.342 94.3025 135.432 93.7569 135.432ZM93.7469 134.055C94.0596 134.055 94.3457 134.002 94.6052 133.895C94.8714 133.789 95.1042 133.636 95.3038 133.436C95.5034 133.236 95.6565 133 95.7629 132.728C95.876 132.455 95.9326 132.152 95.9326 131.819C95.9326 131.487 95.876 131.184 95.7629 130.911C95.6565 130.638 95.5034 130.402 95.3038 130.203C95.1109 130.003 94.8813 129.85 94.6152 129.743C94.3491 129.637 94.0596 129.584 93.7469 129.584C93.4342 129.584 93.1448 129.637 92.8787 129.743C92.6192 129.85 92.3896 130.003 92.19 130.203C91.9904 130.402 91.8341 130.638 91.7209 130.911C91.6145 131.184 91.5613 131.487 91.5613 131.819C91.5613 132.145 91.6145 132.448 91.7209 132.728C91.8341 133 91.9871 133.236 92.18 133.436C92.3796 133.636 92.6125 133.789 92.8787 133.895C93.1448 134.002 93.4342 134.055 93.7469 134.055ZM100.271 131.141H103.635V132.398H100.271V131.141ZM100.391 134.015H104.194V135.312H98.7844V128.326H104.064V129.624H100.391V134.015ZM107.776 135.432C107.217 135.432 106.681 135.359 106.169 135.213C105.656 135.06 105.244 134.863 104.931 134.624L105.48 133.406C105.78 133.619 106.132 133.795 106.538 133.935C106.951 134.068 107.366 134.135 107.786 134.135C108.105 134.135 108.361 134.105 108.554 134.045C108.754 133.978 108.9 133.889 108.993 133.775C109.086 133.662 109.133 133.533 109.133 133.386C109.133 133.2 109.06 133.054 108.913 132.947C108.767 132.834 108.574 132.744 108.334 132.678C108.095 132.604 107.829 132.538 107.536 132.478C107.25 132.411 106.961 132.332 106.668 132.238C106.382 132.145 106.119 132.026 105.879 131.879C105.64 131.733 105.444 131.54 105.291 131.3C105.144 131.061 105.071 130.755 105.071 130.382C105.071 129.983 105.177 129.62 105.39 129.294C105.61 128.962 105.936 128.699 106.368 128.506C106.808 128.306 107.356 128.206 108.015 128.206C108.454 128.206 108.887 128.26 109.313 128.366C109.738 128.466 110.114 128.619 110.44 128.825L109.941 130.053C109.615 129.867 109.289 129.73 108.963 129.644C108.637 129.55 108.318 129.504 108.005 129.504C107.692 129.504 107.436 129.54 107.237 129.614C107.037 129.687 106.894 129.783 106.808 129.903C106.721 130.016 106.678 130.149 106.678 130.302C106.678 130.482 106.751 130.628 106.897 130.741C107.044 130.848 107.237 130.934 107.476 131.001C107.716 131.067 107.979 131.134 108.265 131.201C108.557 131.267 108.847 131.344 109.133 131.43C109.426 131.517 109.692 131.633 109.931 131.779C110.171 131.926 110.364 132.119 110.51 132.358C110.663 132.598 110.74 132.9 110.74 133.266C110.74 133.659 110.63 134.018 110.41 134.344C110.191 134.67 109.861 134.933 109.422 135.133C108.99 135.332 108.441 135.432 107.776 135.432ZM119.461 128.326H121.078V135.312H119.461V128.326ZM116.288 135.312H114.671V128.326H116.288V135.312ZM119.581 132.448H116.168V131.081H119.581V132.448ZM124.218 131.141H127.581V132.398H124.218V131.141ZM124.338 134.015H128.14V135.312H122.731V128.326H128.011V129.624H124.338V134.015ZM129.427 135.312V128.326H132.451C133.076 128.326 133.615 128.429 134.068 128.636C134.52 128.835 134.869 129.125 135.115 129.504C135.362 129.883 135.485 130.336 135.485 130.861C135.485 131.38 135.362 131.829 135.115 132.209C134.869 132.581 134.52 132.867 134.068 133.067C133.615 133.266 133.076 133.366 132.451 133.366H130.325L131.044 132.658V135.312H129.427ZM133.868 135.312L132.121 132.777H133.848L135.614 135.312H133.868ZM131.044 132.837L130.325 132.079H132.361C132.86 132.079 133.233 131.972 133.479 131.759C133.725 131.54 133.848 131.24 133.848 130.861C133.848 130.475 133.725 130.176 133.479 129.963C133.233 129.75 132.86 129.644 132.361 129.644H130.325L131.044 128.875V132.837ZM138.253 131.141H141.616V132.398H138.253V131.141ZM138.373 134.015H142.175V135.312H136.766V128.326H142.045V129.624H138.373V134.015Z" fill="#BDBDBD"/>
</g>
<path d="M123.307 57.7C121.807 57.7 120.507 58.4 119.707 59.5L111.707 56.6C113.007 52.5 113.807 48 113.807 43.4C113.807 27.9 105.607 14.4 93.4068 6.79999L88.8068 16.5C97.5068 22.3 103.207 32.2 103.207 43.4C103.207 46.7 102.707 49.9 101.807 52.9L93.6068 50C94.2068 47.9 94.5068 45.7 94.5068 43.4C94.5068 34.1 89.1068 26.1 81.4068 22.2C81.1068 23.3 80.7068 24.3 80.4068 25.4C79.9068 26.9 79.4068 28.5 78.9068 30.1C83.4068 32.8 86.5068 37.8 86.5068 43.4C86.5068 44.7 86.3068 46 86.0068 47.2L77.7068 44.2C77.7068 43.9 77.8068 43.6 77.8068 43.4C77.8068 39.6 74.7068 36.6 71.0068 36.6C68.6068 36.6 66.5068 37.9 65.2068 39.8L56.9068 36.8C59.4068 31.5 64.7068 27.9 70.9068 27.9C73.1068 27.9 75.2068 28.4 77.1068 29.2C77.8068 27.8 78.5068 26.4 79.2068 25C79.7068 24 80.2068 22.9 80.7068 21.9C77.7068 20.6 74.4068 19.8 71.0068 19.8C61.3068 19.8 52.9068 25.7 49.3068 34L41.1068 31.1C46.0068 19.4 57.5068 11.1 71.0068 11.1C74.0068 11.1 76.9068 11.5 79.7068 12.3L83.1068 2.2C79.3068 1.1 75.2068 0.5 71.0068 0.5C52.9068 0.5 37.4068 11.7 31.1068 27.5L23.9068 24.9V24.8C23.9068 22.2 21.8068 20.1 19.2068 20.1C16.6068 20.1 14.5068 22.2 14.5068 24.8C14.5068 27.4 16.6068 29.5 19.2068 29.5C20.7068 29.5 22.0068 28.8 22.8068 27.7L30.0068 30.3C28.7068 34.4 27.9068 38.9 27.9068 43.5C27.9068 61.8 39.3068 77.4 55.4068 83.6L58.8068 73.5C46.9068 68.7 38.5068 57.1 38.5068 43.5C38.5068 40.2 39.0068 37 39.9068 34L48.1068 36.9C47.5068 39 47.2068 41.2 47.2068 43.5C47.2068 52.5 52.3068 60.4 59.7068 64.4C60.7068 62.4 61.7068 60.4 62.8068 58.3C63.0068 57.9 63.2068 57.5 63.4068 57.2C58.6068 54.5 55.4068 49.5 55.4068 43.6C55.4068 42.3 55.6068 41 55.9068 39.8L64.2068 42.8C64.2068 43.1 64.1068 43.4 64.1068 43.6C64.1068 47.4 67.2068 50.4 70.9068 50.4C73.3068 50.4 75.4068 49.1 76.7068 47.2L85.0068 50.2C82.5068 55.5 77.2068 59.1 71.0068 59.1C70.5068 59.1 70.1068 59.1 69.6068 59C69.4068 59.6 69.2068 60.2 69.0068 60.8C68.3068 62.9 67.7068 64.9 67.1068 66.9C68.4068 67.1 69.6068 67.2 71.0068 67.2C80.7068 67.2 89.1068 61.3 92.7068 53L100.907 55.9C96.0068 67.6 84.5068 75.9 71.0068 75.9C67.6068 75.9 64.4068 75.4 61.4068 74.4L56.8068 84.1C61.3068 85.7 66.1068 86.5 71.0068 86.5C89.1068 86.5 104.607 75.3 110.907 59.5L118.907 62.4V62.5C118.907 65.1 121.007 67.2 123.607 67.2C126.207 67.2 128.307 65.1 128.307 62.5C128.307 59.9 125.807 57.7 123.307 57.7Z" fill="#BDBDBD"/>
</svg>
