<svg width="144" height="131" viewBox="0 0 144 131" fill="none" xmlns="http://www.w3.org/2000/svg">
<g opacity="0.7">
<path d="M5.85345 117.487V105.564H1.15135V102.793H13.9562V105.564H9.25407V117.487H5.85345ZM18.9136 108.712H25.9877V111.357H18.9136V108.712ZM19.1655 114.758H27.1633V117.487H15.7859V102.793H26.8904V105.522H19.1655V114.758ZM36.9012 117.739C35.7676 117.739 34.7111 117.557 33.7315 117.193C32.7659 116.815 31.9262 116.283 31.2125 115.598C30.4988 114.912 29.939 114.107 29.5332 113.184C29.1413 112.26 28.9454 111.245 28.9454 110.14C28.9454 109.034 29.1413 108.02 29.5332 107.096C29.939 106.173 30.4988 105.368 31.2125 104.682C31.9402 103.996 32.7869 103.472 33.7525 103.108C34.7181 102.73 35.7746 102.541 36.9222 102.541C38.1957 102.541 39.3432 102.765 40.3648 103.213C41.4004 103.647 42.268 104.29 42.9677 105.144L40.7846 107.159C40.2808 106.585 39.721 106.159 39.1053 105.879C38.4895 105.585 37.8178 105.438 37.0901 105.438C36.4044 105.438 35.7746 105.55 35.2009 105.774C34.6271 105.998 34.1303 106.319 33.7105 106.739C33.2906 107.159 32.9618 107.656 32.7239 108.23C32.5 108.803 32.388 109.44 32.388 110.14C32.388 110.84 32.5 111.476 32.7239 112.05C32.9618 112.624 33.2906 113.121 33.7105 113.541C34.1303 113.96 34.6271 114.282 35.2009 114.506C35.7746 114.73 36.4044 114.842 37.0901 114.842C37.8178 114.842 38.4895 114.702 39.1053 114.422C39.721 114.128 40.2808 113.687 40.7846 113.1L42.9677 115.115C42.268 115.969 41.4004 116.619 40.3648 117.067C39.3432 117.515 38.1887 117.739 36.9012 117.739ZM55.3401 102.793H58.7407V117.487H55.3401V102.793ZM48.6648 117.487H45.2642V102.793H48.6648V117.487ZM55.592 111.462H48.4129V108.587H55.592V111.462ZM62.2173 117.487V102.793H69.3964C71.2436 102.793 72.629 103.143 73.5527 103.842C74.4903 104.542 74.9591 105.466 74.9591 106.613C74.9591 107.383 74.7702 108.055 74.3923 108.629C74.0145 109.188 73.4967 109.622 72.839 109.93C72.1812 110.238 71.4255 110.392 70.5719 110.392L70.9707 109.531C71.8943 109.531 72.713 109.685 73.4267 109.993C74.1404 110.287 74.6932 110.728 75.0851 111.315C75.4909 111.903 75.6938 112.624 75.6938 113.478C75.6938 114.737 75.197 115.724 74.2034 116.437C73.2098 117.137 71.7474 117.487 69.8162 117.487H62.2173ZM65.5969 114.926H69.5643C70.4459 114.926 71.1107 114.786 71.5585 114.506C72.0203 114.212 72.2512 113.75 72.2512 113.121C72.2512 112.505 72.0203 112.05 71.5585 111.756C71.1107 111.448 70.4459 111.294 69.5643 111.294H65.345V108.817H68.9765C69.8022 108.817 70.4319 108.678 70.8658 108.398C71.3136 108.104 71.5375 107.663 71.5375 107.075C71.5375 106.501 71.3136 106.075 70.8658 105.795C70.4319 105.501 69.8022 105.354 68.9765 105.354H65.5969V114.926ZM78.2684 117.487V102.793H84.6288C85.9443 102.793 87.0778 103.01 88.0294 103.444C88.9811 103.863 89.7158 104.472 90.2335 105.27C90.7513 106.068 91.0102 107.019 91.0102 108.125C91.0102 109.216 90.7513 110.161 90.2335 110.959C89.7158 111.742 88.9811 112.344 88.0294 112.764C87.0778 113.184 85.9443 113.394 84.6288 113.394H80.1576L81.669 111.903V117.487H78.2684ZM87.6096 117.487L83.9361 112.155H87.5676L91.2831 117.487H87.6096ZM81.669 112.281L80.1576 110.686H84.4399C85.4895 110.686 86.2731 110.462 86.7909 110.014C87.3087 109.552 87.5676 108.922 87.5676 108.125C87.5676 107.313 87.3087 106.683 86.7909 106.235C86.2731 105.788 85.4895 105.564 84.4399 105.564H80.1576L81.669 103.947V112.281ZM91.7733 117.487L98.3226 102.793H101.681L108.252 117.487H104.683L99.3092 104.514H100.653L95.2579 117.487H91.7733ZM95.048 114.338L95.9506 111.756H103.508L104.431 114.338H95.048ZM109.776 117.487V102.793H112.589L121.258 113.373H119.894V102.793H123.253V117.487H120.461L111.77 106.907H113.135V117.487H109.776ZM126.729 117.487V102.793H133.405C135 102.793 136.406 103.101 137.624 103.717C138.841 104.318 139.793 105.165 140.479 106.256C141.164 107.348 141.507 108.643 141.507 110.14C141.507 111.623 141.164 112.918 140.479 114.023C139.793 115.115 138.841 115.969 137.624 116.584C136.406 117.186 135 117.487 133.405 117.487H126.729ZM130.13 114.695H133.237C134.216 114.695 135.063 114.513 135.777 114.149C136.504 113.771 137.064 113.24 137.456 112.554C137.862 111.868 138.065 111.064 138.065 110.14C138.065 109.202 137.862 108.398 137.456 107.726C137.064 107.04 136.504 106.515 135.777 106.152C135.063 105.774 134.216 105.585 133.237 105.585H130.13V114.695Z" fill="#BDBDBD"/>
<path d="M2.81393 128.964V126.109L3.1832 127.087L0.109301 121.978H1.8259L4.18122 125.9H3.19318L5.55849 121.978H7.14534L4.07144 127.087L4.43073 126.109V128.964H2.81393ZM10.9129 129.084C10.3607 129.084 9.84839 128.994 9.37599 128.814C8.91025 128.634 8.50439 128.382 8.15841 128.056C7.81908 127.73 7.55294 127.347 7.35999 126.908C7.1737 126.469 7.08055 125.99 7.08055 125.471C7.08055 124.952 7.1737 124.473 7.35999 124.034C7.55294 123.594 7.82241 123.212 8.16839 122.886C8.51437 122.56 8.92023 122.307 9.38597 122.127C9.85172 121.948 10.3574 121.858 10.903 121.858C11.4552 121.858 11.9609 121.948 12.42 122.127C12.8857 122.307 13.2882 122.56 13.6276 122.886C13.9735 123.212 14.243 123.594 14.436 124.034C14.6289 124.466 14.7254 124.945 14.7254 125.471C14.7254 125.99 14.6289 126.472 14.436 126.918C14.243 127.357 13.9735 127.74 13.6276 128.066C13.2882 128.385 12.8857 128.634 12.42 128.814C11.9609 128.994 11.4585 129.084 10.9129 129.084ZM10.903 127.706C11.2157 127.706 11.5018 127.653 11.7613 127.547C12.0274 127.44 12.2603 127.287 12.4599 127.087C12.6595 126.888 12.8125 126.652 12.919 126.379C13.0321 126.106 13.0886 125.803 13.0886 125.471C13.0886 125.138 13.0321 124.835 12.919 124.562C12.8125 124.29 12.6595 124.053 12.4599 123.854C12.2669 123.654 12.0374 123.501 11.7712 123.395C11.5051 123.288 11.2157 123.235 10.903 123.235C10.5903 123.235 10.3008 123.288 10.0347 123.395C9.7752 123.501 9.54566 123.654 9.34605 123.854C9.14645 124.053 8.99009 124.29 8.87698 124.562C8.77053 124.835 8.7173 125.138 8.7173 125.471C8.7173 125.797 8.77053 126.099 8.87698 126.379C8.99009 126.652 9.14312 126.888 9.33607 127.087C9.53568 127.287 9.76855 127.44 10.0347 127.547C10.3008 127.653 10.5903 127.706 10.903 127.706ZM19.0443 129.084C18.0529 129.084 17.2778 128.807 16.7189 128.255C16.16 127.703 15.8806 126.914 15.8806 125.89V121.978H17.4974V125.83C17.4974 126.495 17.6338 126.974 17.9066 127.267C18.1794 127.56 18.5619 127.706 19.0543 127.706C19.5466 127.706 19.9292 127.56 20.202 127.267C20.4748 126.974 20.6112 126.495 20.6112 125.83V121.978H22.208V125.89C22.208 126.914 21.9286 127.703 21.3697 128.255C20.8108 128.807 20.0357 129.084 19.0443 129.084ZM23.8057 128.964V121.978H26.8297C27.4552 121.978 27.9941 122.081 28.4465 122.287C28.899 122.487 29.2483 122.776 29.4944 123.155C29.7406 123.535 29.8637 123.987 29.8637 124.513C29.8637 125.032 29.7406 125.481 29.4944 125.86C29.2483 126.232 28.899 126.519 28.4465 126.718C27.9941 126.918 27.4552 127.018 26.8297 127.018H24.7039L25.4225 126.309V128.964H23.8057ZM28.2469 128.964L26.5004 126.429H28.227L29.9934 128.964H28.2469ZM25.4225 126.489L24.7039 125.73H26.7399C27.2389 125.73 27.6115 125.624 27.8577 125.411C28.1039 125.191 28.227 124.892 28.227 124.513C28.227 124.127 28.1039 123.827 27.8577 123.614C27.6115 123.401 27.2389 123.295 26.7399 123.295H24.7039L25.4225 122.527V126.489ZM35.4182 128.964V123.295H33.1827V121.978H39.2706V123.295H37.035V128.964H35.4182ZM38.8715 128.964L41.9853 121.978H43.5821L46.7059 128.964H45.0093L42.4544 122.796H43.0931L40.5282 128.964H38.8715ZM40.4284 127.467L40.8575 126.239H44.4504L44.8895 127.467H40.4284ZM50.7066 129.084C50.1543 129.084 49.6453 128.997 49.1796 128.824C48.7205 128.644 48.318 128.392 47.972 128.066C47.6327 127.74 47.3665 127.357 47.1736 126.918C46.9873 126.479 46.8941 125.996 46.8941 125.471C46.8941 124.945 46.9873 124.463 47.1736 124.024C47.3665 123.584 47.636 123.202 47.982 122.876C48.328 122.55 48.7338 122.3 49.1996 122.127C49.6653 121.948 50.1776 121.858 50.7365 121.858C51.3553 121.858 51.9109 121.961 52.4032 122.167C52.9022 122.373 53.3214 122.673 53.6607 123.065L52.6228 124.024C52.3699 123.757 52.0938 123.561 51.7944 123.435C51.495 123.302 51.169 123.235 50.8164 123.235C50.477 123.235 50.1676 123.288 49.8882 123.395C49.6088 123.501 49.3659 123.654 49.1596 123.854C48.96 124.053 48.8037 124.29 48.6906 124.562C48.5841 124.835 48.5309 125.138 48.5309 125.471C48.5309 125.797 48.5841 126.096 48.6906 126.369C48.8037 126.642 48.96 126.881 49.1596 127.087C49.3659 127.287 49.6054 127.44 49.8782 127.547C50.1577 127.653 50.4637 127.706 50.7964 127.706C51.1158 127.706 51.4251 127.656 51.7246 127.557C52.0306 127.45 52.3267 127.274 52.6128 127.028L53.531 128.195C53.1517 128.481 52.7093 128.701 52.2036 128.854C51.7046 129.007 51.2056 129.084 50.7066 129.084ZM52.0539 127.986V125.361H53.531V128.195L52.0539 127.986ZM55.0328 128.964V121.978H56.6496V127.646H60.1527V128.964H55.0328ZM61.056 128.964V121.978H62.6728V128.964H61.056ZM64.3308 128.964V121.978H65.6681L69.79 127.008H69.1413V121.978H70.7381V128.964H69.4107L65.2789 123.934H65.9276V128.964H64.3308ZM73.878 124.792H77.2414V126.05H73.878V124.792ZM73.9978 127.666H77.8002V128.964H72.391V121.978H77.6705V123.275H73.9978V127.666ZM85.2864 129.084C84.7342 129.084 84.2252 128.997 83.7594 128.824C83.3004 128.644 82.8978 128.392 82.5518 128.066C82.2125 127.74 81.9464 127.357 81.7534 126.918C81.5671 126.479 81.474 125.996 81.474 125.471C81.474 124.945 81.5671 124.463 81.7534 124.024C81.9464 123.584 82.2158 123.202 82.5618 122.876C82.9078 122.55 83.3137 122.3 83.7794 122.127C84.2451 121.948 84.7575 121.858 85.3164 121.858C85.9351 121.858 86.4907 121.961 86.983 122.167C87.4821 122.373 87.9012 122.673 88.2406 123.065L87.2026 124.024C86.9498 123.757 86.6737 123.561 86.3743 123.435C86.0748 123.302 85.7488 123.235 85.3962 123.235C85.0569 123.235 84.7475 123.288 84.468 123.395C84.1886 123.501 83.9457 123.654 83.7395 123.854C83.5399 124.053 83.3835 124.29 83.2704 124.562C83.164 124.835 83.1107 125.138 83.1107 125.471C83.1107 125.797 83.164 126.096 83.2704 126.369C83.3835 126.642 83.5399 126.881 83.7395 127.087C83.9457 127.287 84.1853 127.44 84.4581 127.547C84.7375 127.653 85.0436 127.706 85.3762 127.706C85.6956 127.706 86.005 127.656 86.3044 127.557C86.6105 127.45 86.9065 127.274 87.1926 127.028L88.1108 128.195C87.7316 128.481 87.2891 128.701 86.7834 128.854C86.2844 129.007 85.7854 129.084 85.2864 129.084ZM86.6337 127.986V125.361H88.1108V128.195L86.6337 127.986ZM93.0059 129.084C92.4537 129.084 91.9414 128.994 91.469 128.814C91.0032 128.634 90.5974 128.382 90.2514 128.056C89.9121 127.73 89.6459 127.347 89.453 126.908C89.2667 126.469 89.1735 125.99 89.1735 125.471C89.1735 124.952 89.2667 124.473 89.453 124.034C89.6459 123.594 89.9154 123.212 90.2614 122.886C90.6074 122.56 91.0132 122.307 91.479 122.127C91.9447 121.948 92.4504 121.858 92.996 121.858C93.5482 121.858 94.0539 121.948 94.5129 122.127C94.9787 122.307 95.3812 122.56 95.7205 122.886C96.0665 123.212 96.336 123.594 96.5289 124.034C96.7219 124.466 96.8184 124.945 96.8184 125.471C96.8184 125.99 96.7219 126.472 96.5289 126.918C96.336 127.357 96.0665 127.74 95.7205 128.066C95.3812 128.385 94.9787 128.634 94.5129 128.814C94.0539 128.994 93.5515 129.084 93.0059 129.084ZM92.996 127.706C93.3087 127.706 93.5948 127.653 93.8543 127.547C94.1204 127.44 94.3533 127.287 94.5529 127.087C94.7525 126.888 94.9055 126.652 95.012 126.379C95.1251 126.106 95.1816 125.803 95.1816 125.471C95.1816 125.138 95.1251 124.835 95.012 124.562C94.9055 124.29 94.7525 124.053 94.5529 123.854C94.3599 123.654 94.1304 123.501 93.8642 123.395C93.5981 123.288 93.3087 123.235 92.996 123.235C92.6832 123.235 92.3938 123.288 92.1277 123.395C91.8682 123.501 91.6386 123.654 91.439 123.854C91.2394 124.053 91.0831 124.29 90.97 124.562C90.8635 124.835 90.8103 125.138 90.8103 125.471C90.8103 125.797 90.8635 126.099 90.97 126.379C91.0831 126.652 91.2361 126.888 91.4291 127.087C91.6287 127.287 91.8615 127.44 92.1277 127.547C92.3938 127.653 92.6832 127.706 92.996 127.706ZM99.5205 124.792H102.884V126.05H99.5205V124.792ZM99.6403 127.666H103.443V128.964H98.0335V121.978H103.313V123.275H99.6403V127.666ZM107.025 129.084C106.466 129.084 105.93 129.01 105.418 128.864C104.905 128.711 104.493 128.515 104.18 128.275L104.729 127.058C105.029 127.27 105.381 127.447 105.787 127.586C106.2 127.72 106.615 127.786 107.035 127.786C107.354 127.786 107.61 127.756 107.803 127.696C108.003 127.63 108.149 127.54 108.242 127.427C108.335 127.314 108.382 127.184 108.382 127.038C108.382 126.851 108.309 126.705 108.162 126.598C108.016 126.485 107.823 126.396 107.583 126.329C107.344 126.256 107.078 126.189 106.785 126.129C106.499 126.063 106.21 125.983 105.917 125.89C105.631 125.797 105.368 125.677 105.128 125.531C104.889 125.384 104.693 125.191 104.54 124.952C104.393 124.712 104.32 124.406 104.32 124.034C104.32 123.634 104.426 123.272 104.639 122.946C104.859 122.613 105.185 122.35 105.617 122.157C106.057 121.958 106.605 121.858 107.264 121.858C107.703 121.858 108.136 121.911 108.562 122.018C108.987 122.117 109.363 122.27 109.689 122.477L109.19 123.704C108.864 123.518 108.538 123.381 108.212 123.295C107.886 123.202 107.567 123.155 107.254 123.155C106.941 123.155 106.685 123.192 106.486 123.265C106.286 123.338 106.143 123.435 106.057 123.554C105.97 123.668 105.927 123.801 105.927 123.954C105.927 124.133 106 124.28 106.146 124.393C106.293 124.499 106.486 124.586 106.725 124.652C106.965 124.719 107.228 124.785 107.514 124.852C107.806 124.918 108.096 124.995 108.382 125.081C108.675 125.168 108.941 125.284 109.18 125.431C109.42 125.577 109.613 125.77 109.759 126.01C109.912 126.249 109.989 126.552 109.989 126.918C109.989 127.31 109.879 127.67 109.659 127.996C109.44 128.322 109.11 128.584 108.671 128.784C108.239 128.984 107.69 129.084 107.025 129.084ZM118.71 121.978H120.327V128.964H118.71V121.978ZM115.537 128.964H113.92V121.978H115.537V128.964ZM118.83 126.099H115.417V124.732H118.83V126.099ZM123.467 124.792H126.83V126.05H123.467V124.792ZM123.587 127.666H127.389V128.964H121.98V121.978H127.26V123.275H123.587V127.666ZM128.676 128.964V121.978H131.7C132.325 121.978 132.864 122.081 133.317 122.287C133.769 122.487 134.118 122.776 134.365 123.155C134.611 123.535 134.734 123.987 134.734 124.513C134.734 125.032 134.611 125.481 134.365 125.86C134.118 126.232 133.769 126.519 133.317 126.718C132.864 126.918 132.325 127.018 131.7 127.018H129.574L130.293 126.309V128.964H128.676ZM133.117 128.964L131.37 126.429H133.097L134.864 128.964H133.117ZM130.293 126.489L129.574 125.73H131.61C132.109 125.73 132.482 125.624 132.728 125.411C132.974 125.191 133.097 124.892 133.097 124.513C133.097 124.127 132.974 123.827 132.728 123.614C132.482 123.401 132.109 123.295 131.61 123.295H129.574L130.293 122.527V126.489ZM137.502 124.792H140.865V126.05H137.502V124.792ZM137.622 127.666H141.424V128.964H136.015V121.978H141.294V123.275H137.622V127.666Z" fill="#BDBDBD"/>
</g>
<path d="M69.3066 60.1C59.4066 60.1 51.3066 52 51.3066 42.1H31.3066C31.3066 63.1 48.3066 80.1 69.3066 80.1V60.1Z" fill="#BDBDBD"/>
<path d="M69.3066 60.1C59.4066 60.1 51.3066 52 51.3066 42.1H31.3066C31.3066 63.1 48.3066 80.1 69.3066 80.1V60.1Z" fill="#BDBDBD"/>
<path d="M69.307 51.7V42.1H59.707C61.607 46.4 65.007 49.9 69.307 51.7Z" fill="#BDBDBD"/>
<path d="M69.3064 0.0999756C48.8064 0.0999756 31.8064 14.7 28.1064 34.1H47.7064H59.4064H77.4064V52.1V63.8V83.4C96.8064 79.7 111.406 62.6 111.406 42.2C111.306 18.9 92.5064 0.0999756 69.3064 0.0999756ZM85.3064 72.1V26.1H39.3064C45.1064 15.3 56.5064 8.09998 69.3064 8.09998C88.0064 8.09998 103.306 23.4 103.306 42.1C103.306 54.9 96.2064 66.4 85.3064 72.1Z" fill="#BDBDBD"/>
</svg>
