<svg width="144" height="126" viewBox="0 0 144 126" fill="none" xmlns="http://www.w3.org/2000/svg">
<g opacity="0.7">
<path d="M6.35442 112.487V100.564H1.65233V97.7931H14.4571V100.564H9.75505V112.487H6.35442ZM19.4146 103.713H26.4887V106.358H19.4146V103.713ZM19.6665 109.758H27.6642V112.487H16.2868V97.7931H27.3914V100.522H19.6665V109.758ZM37.4022 112.739C36.2686 112.739 35.2121 112.557 34.2324 112.193C33.2668 111.815 32.4272 111.284 31.7135 110.598C30.9998 109.912 30.44 109.108 30.0341 108.184C29.6423 107.26 29.4464 106.246 29.4464 105.14C29.4464 104.035 29.6423 103.02 30.0341 102.096C30.44 101.173 30.9998 100.368 31.7135 99.6824C32.4412 98.9966 33.2878 98.4719 34.2534 98.108C35.219 97.7302 36.2756 97.5412 37.4232 97.5412C38.6966 97.5412 39.8442 97.7651 40.8658 98.213C41.9013 98.6468 42.769 99.2905 43.4687 100.144L41.2856 102.159C40.7818 101.586 40.222 101.159 39.6063 100.879C38.9905 100.585 38.3188 100.438 37.5911 100.438C36.9054 100.438 36.2756 100.55 35.7019 100.774C35.1281 100.998 34.6313 101.32 34.2115 101.74C33.7916 102.159 33.4628 102.656 33.2249 103.23C33.0009 103.804 32.889 104.44 32.889 105.14C32.889 105.84 33.0009 106.477 33.2249 107.05C33.4628 107.624 33.7916 108.121 34.2115 108.541C34.6313 108.961 35.1281 109.282 35.7019 109.506C36.2756 109.73 36.9054 109.842 37.5911 109.842C38.3188 109.842 38.9905 109.702 39.6063 109.422C40.222 109.129 40.7818 108.688 41.2856 108.1L43.4687 110.115C42.769 110.969 41.9013 111.62 40.8658 112.067C39.8442 112.515 38.6896 112.739 37.4022 112.739ZM55.8411 97.7931H59.2417V112.487H55.8411V97.7931ZM49.1658 112.487H45.7651V97.7931H49.1658V112.487ZM56.093 106.463H48.9139V103.587H56.093V106.463ZM62.7182 112.487V97.7931H69.8973C71.7446 97.7931 73.13 98.143 74.0537 98.8427C74.9913 99.5424 75.4601 100.466 75.4601 101.614C75.4601 102.383 75.2712 103.055 74.8933 103.629C74.5155 104.189 73.9977 104.622 73.3399 104.93C72.6822 105.238 71.9265 105.392 71.0729 105.392L71.4717 104.531C72.3953 104.531 73.214 104.685 73.9277 104.993C74.6414 105.287 75.1942 105.728 75.586 106.316C75.9919 106.903 76.1948 107.624 76.1948 108.478C76.1948 109.737 75.698 110.724 74.7044 111.438C73.7108 112.137 72.2484 112.487 70.3172 112.487H62.7182ZM66.0979 109.926H70.0653C70.9469 109.926 71.6116 109.786 72.0595 109.506C72.5213 109.213 72.7522 108.751 72.7522 108.121C72.7522 107.505 72.5213 107.05 72.0595 106.757C71.6116 106.449 70.9469 106.295 70.0653 106.295H65.846V103.818H69.4775C70.3032 103.818 70.9329 103.678 71.3667 103.398C71.8146 103.104 72.0385 102.663 72.0385 102.075C72.0385 101.502 71.8146 101.075 71.3667 100.795C70.9329 100.501 70.3032 100.354 69.4775 100.354H66.0979V109.926ZM78.7694 112.487V97.7931H85.1298C86.4453 97.7931 87.5788 98.01 88.5304 98.4439C89.482 98.8637 90.2167 99.4725 90.7345 100.27C91.2523 101.068 91.5112 102.019 91.5112 103.125C91.5112 104.217 91.2523 105.161 90.7345 105.959C90.2167 106.743 89.482 107.344 88.5304 107.764C87.5788 108.184 86.4453 108.394 85.1298 108.394H80.6586L82.17 106.903V112.487H78.7694ZM88.1106 112.487L84.4371 107.155H88.0686L91.7841 112.487H88.1106ZM82.17 107.281L80.6586 105.686H84.9409C85.9904 105.686 86.7741 105.462 87.2919 105.014C87.8097 104.552 88.0686 103.923 88.0686 103.125C88.0686 102.313 87.8097 101.684 87.2919 101.236C86.7741 100.788 85.9904 100.564 84.9409 100.564H80.6586L82.17 98.9477V107.281ZM92.2743 112.487L98.8236 97.7931H102.182L108.753 112.487H105.184L99.8102 99.5144H101.154L95.7589 112.487H92.2743ZM95.5489 109.338L96.4516 106.757H104.009L104.932 109.338H95.5489ZM110.277 112.487V97.7931H113.09L121.759 108.373H120.395V97.7931H123.754V112.487H120.962L112.271 101.907H113.636V112.487H110.277ZM127.23 112.487V97.7931H133.906C135.501 97.7931 136.907 98.101 138.125 98.7168C139.342 99.3185 140.294 100.165 140.98 101.257C141.665 102.348 142.008 103.643 142.008 105.14C142.008 106.624 141.665 107.918 140.98 109.024C140.294 110.115 139.342 110.969 138.125 111.585C136.907 112.186 135.501 112.487 133.906 112.487H127.23ZM130.631 109.695H133.738C134.717 109.695 135.564 109.513 136.278 109.15C137.005 108.772 137.565 108.24 137.957 107.554C138.363 106.868 138.566 106.064 138.566 105.14C138.566 104.203 138.363 103.398 137.957 102.726C137.565 102.04 137.005 101.516 136.278 101.152C135.564 100.774 134.717 100.585 133.738 100.585H130.631V109.695Z" fill="#BDBDBD"/>
<path d="M3.31491 123.964V121.11L3.68418 122.088L0.610277 116.978H2.32687L4.6822 120.9H3.69416L6.05947 116.978H7.64632L4.57242 122.088L4.9317 121.11V123.964H3.31491ZM11.4139 124.084C10.8617 124.084 10.3494 123.994 9.87697 123.814C9.41123 123.635 9.00537 123.382 8.65939 123.056C8.32006 122.73 8.05392 122.347 7.86097 121.908C7.67467 121.469 7.58152 120.99 7.58152 120.471C7.58152 119.952 7.67467 119.473 7.86097 119.034C8.05392 118.595 8.32339 118.212 8.66937 117.886C9.01535 117.56 9.42121 117.307 9.88695 117.127C10.3527 116.948 10.8584 116.858 11.4039 116.858C11.9562 116.858 12.4618 116.948 12.9209 117.127C13.3867 117.307 13.7892 117.56 14.1285 117.886C14.4745 118.212 14.744 118.595 14.9369 119.034C15.1299 119.466 15.2264 119.945 15.2264 120.471C15.2264 120.99 15.1299 121.472 14.9369 121.918C14.744 122.357 14.4745 122.74 14.1285 123.066C13.7892 123.385 13.3867 123.635 12.9209 123.814C12.4618 123.994 11.9595 124.084 11.4139 124.084ZM11.4039 122.706C11.7167 122.706 12.0028 122.653 12.2622 122.547C12.5284 122.44 12.7612 122.287 12.9609 122.088C13.1605 121.888 13.3135 121.652 13.4199 121.379C13.5331 121.106 13.5896 120.803 13.5896 120.471C13.5896 120.138 13.5331 119.835 13.4199 119.563C13.3135 119.29 13.1605 119.054 12.9609 118.854C12.7679 118.654 12.5384 118.501 12.2722 118.395C12.0061 118.288 11.7167 118.235 11.4039 118.235C11.0912 118.235 10.8018 118.288 10.5357 118.395C10.2762 118.501 10.0466 118.654 9.84703 118.854C9.64743 119.054 9.49107 119.29 9.37796 119.563C9.27151 119.835 9.21828 120.138 9.21828 120.471C9.21828 120.797 9.27151 121.1 9.37796 121.379C9.49107 121.652 9.6441 121.888 9.83705 122.088C10.0367 122.287 10.2695 122.44 10.5357 122.547C10.8018 122.653 11.0912 122.706 11.4039 122.706ZM19.5453 124.084C18.5539 124.084 17.7788 123.808 17.2199 123.255C16.661 122.703 16.3816 121.915 16.3816 120.89V116.978H17.9984V120.83C17.9984 121.495 18.1348 121.974 18.4075 122.267C18.6803 122.56 19.0629 122.706 19.5553 122.706C20.0476 122.706 20.4302 122.56 20.703 122.267C20.9758 121.974 21.1122 121.495 21.1122 120.83V116.978H22.709V120.89C22.709 121.915 22.4296 122.703 21.8707 123.255C21.3118 123.808 20.5367 124.084 19.5453 124.084ZM24.3067 123.964V116.978H27.3307C27.9561 116.978 28.4951 117.081 28.9475 117.287C29.3999 117.487 29.7492 117.776 29.9954 118.155C30.2416 118.535 30.3647 118.987 30.3647 119.513C30.3647 120.032 30.2416 120.481 29.9954 120.86C29.7492 121.233 29.3999 121.519 28.9475 121.718C28.4951 121.918 27.9561 122.018 27.3307 122.018H25.2049L25.9235 121.309V123.964H24.3067ZM28.7479 123.964L27.0014 121.429H28.7279L30.4944 123.964H28.7479ZM25.9235 121.489L25.2049 120.73H27.2409C27.7399 120.73 28.1125 120.624 28.3587 120.411C28.6048 120.191 28.7279 119.892 28.7279 119.513C28.7279 119.127 28.6048 118.827 28.3587 118.614C28.1125 118.402 27.7399 118.295 27.2409 118.295H25.2049L25.9235 117.527V121.489ZM35.9192 123.964V118.295H33.6836V116.978H39.7716V118.295H37.536V123.964H35.9192ZM39.3724 123.964L42.4863 116.978H44.0831L47.2069 123.964H45.5103L42.9553 117.796H43.5941L41.0292 123.964H39.3724ZM40.9294 122.467L41.3585 121.239H44.9514L45.3905 122.467H40.9294ZM51.2076 124.084C50.6553 124.084 50.1463 123.997 49.6806 123.824C49.2215 123.645 48.819 123.392 48.473 123.066C48.1336 122.74 47.8675 122.357 47.6746 121.918C47.4883 121.479 47.3951 120.996 47.3951 120.471C47.3951 119.945 47.4883 119.463 47.6746 119.024C47.8675 118.585 48.137 118.202 48.483 117.876C48.8289 117.55 49.2348 117.3 49.7005 117.127C50.1663 116.948 50.6786 116.858 51.2375 116.858C51.8563 116.858 52.4118 116.961 52.9042 117.167C53.4032 117.374 53.8224 117.673 54.1617 118.066L53.1237 119.024C52.8709 118.758 52.5948 118.561 52.2954 118.435C51.996 118.302 51.67 118.235 51.3173 118.235C50.978 118.235 50.6686 118.288 50.3892 118.395C50.1097 118.501 49.8669 118.654 49.6606 118.854C49.461 119.054 49.3047 119.29 49.1915 119.563C49.0851 119.835 49.0319 120.138 49.0319 120.471C49.0319 120.797 49.0851 121.096 49.1915 121.369C49.3047 121.642 49.461 121.881 49.6606 122.088C49.8669 122.287 50.1064 122.44 50.3792 122.547C50.6586 122.653 50.9647 122.706 51.2974 122.706C51.6167 122.706 51.9261 122.656 52.2255 122.557C52.5316 122.45 52.8277 122.274 53.1138 122.028L54.0319 123.195C53.6527 123.481 53.2102 123.701 52.7046 123.854C52.2056 124.007 51.7066 124.084 51.2076 124.084ZM52.5549 122.986V120.361H54.0319V123.195L52.5549 122.986ZM55.5338 123.964V116.978H57.1506V122.646H60.6537V123.964H55.5338ZM61.557 123.964V116.978H63.1738V123.964H61.557ZM64.8318 123.964V116.978H66.1691L70.2909 122.008H69.6422V116.978H71.2391V123.964H69.9117L65.7799 118.934H66.4286V123.964H64.8318ZM74.379 119.792H77.7423V121.05H74.379V119.792ZM74.4988 122.666H78.3012V123.964H72.892V116.978H78.1715V118.275H74.4988V122.666ZM85.7874 124.084C85.2352 124.084 84.7262 123.997 84.2604 123.824C83.8013 123.645 83.3988 123.392 83.0528 123.066C82.7135 122.74 82.4473 122.357 82.2544 121.918C82.0681 121.479 81.975 120.996 81.975 120.471C81.975 119.945 82.0681 119.463 82.2544 119.024C82.4473 118.585 82.7168 118.202 83.0628 117.876C83.4088 117.55 83.8146 117.3 84.2804 117.127C84.7461 116.948 85.2584 116.858 85.8173 116.858C86.4361 116.858 86.9917 116.961 87.484 117.167C87.983 117.374 88.4022 117.673 88.7415 118.066L87.7036 119.024C87.4508 118.758 87.1746 118.561 86.8752 118.435C86.5758 118.302 86.2498 118.235 85.8972 118.235C85.5578 118.235 85.2485 118.288 84.969 118.395C84.6896 118.501 84.4467 118.654 84.2405 118.854C84.0409 119.054 83.8845 119.29 83.7714 119.563C83.6649 119.835 83.6117 120.138 83.6117 120.471C83.6117 120.797 83.6649 121.096 83.7714 121.369C83.8845 121.642 84.0409 121.881 84.2405 122.088C84.4467 122.287 84.6862 122.44 84.959 122.547C85.2385 122.653 85.5445 122.706 85.8772 122.706C86.1966 122.706 86.506 122.656 86.8054 122.557C87.1114 122.45 87.4075 122.274 87.6936 122.028L88.6118 123.195C88.2325 123.481 87.7901 123.701 87.2844 123.854C86.7854 124.007 86.2864 124.084 85.7874 124.084ZM87.1347 122.986V120.361H88.6118V123.195L87.1347 122.986ZM93.5069 124.084C92.9547 124.084 92.4424 123.994 91.97 123.814C91.5042 123.635 91.0984 123.382 90.7524 123.056C90.413 122.73 90.1469 122.347 89.954 121.908C89.7677 121.469 89.6745 120.99 89.6745 120.471C89.6745 119.952 89.7677 119.473 89.954 119.034C90.1469 118.595 90.4164 118.212 90.7624 117.886C91.1083 117.56 91.5142 117.307 91.9799 117.127C92.4457 116.948 92.9513 116.858 93.4969 116.858C94.0492 116.858 94.5548 116.948 95.0139 117.127C95.4797 117.307 95.8822 117.56 96.2215 117.886C96.5675 118.212 96.837 118.595 97.0299 119.034C97.2229 119.466 97.3193 119.945 97.3193 120.471C97.3193 120.99 97.2229 121.472 97.0299 121.918C96.837 122.357 96.5675 122.74 96.2215 123.066C95.8822 123.385 95.4797 123.635 95.0139 123.814C94.5548 123.994 94.0525 124.084 93.5069 124.084ZM93.4969 122.706C93.8096 122.706 94.0957 122.653 94.3552 122.547C94.6214 122.44 94.8542 122.287 95.0538 122.088C95.2534 121.888 95.4065 121.652 95.5129 121.379C95.626 121.106 95.6826 120.803 95.6826 120.471C95.6826 120.138 95.626 119.835 95.5129 119.563C95.4065 119.29 95.2534 119.054 95.0538 118.854C94.8609 118.654 94.6313 118.501 94.3652 118.395C94.0991 118.288 93.8096 118.235 93.4969 118.235C93.1842 118.235 92.8948 118.288 92.6287 118.395C92.3692 118.501 92.1396 118.654 91.94 118.854C91.7404 119.054 91.5841 119.29 91.4709 119.563C91.3645 119.835 91.3113 120.138 91.3113 120.471C91.3113 120.797 91.3645 121.1 91.4709 121.379C91.5841 121.652 91.7371 121.888 91.93 122.088C92.1296 122.287 92.3625 122.44 92.6287 122.547C92.8948 122.653 93.1842 122.706 93.4969 122.706ZM100.021 119.792H103.385V121.05H100.021V119.792ZM100.141 122.666H103.944V123.964H98.5344V116.978H103.814V118.275H100.141V122.666ZM107.526 124.084C106.967 124.084 106.431 124.01 105.919 123.864C105.406 123.711 104.994 123.515 104.681 123.275L105.23 122.058C105.53 122.271 105.882 122.447 106.288 122.587C106.701 122.72 107.116 122.786 107.536 122.786C107.855 122.786 108.111 122.756 108.304 122.696C108.504 122.63 108.65 122.54 108.743 122.427C108.836 122.314 108.883 122.184 108.883 122.038C108.883 121.851 108.81 121.705 108.663 121.599C108.517 121.485 108.324 121.396 108.084 121.329C107.845 121.256 107.579 121.189 107.286 121.129C107 121.063 106.711 120.983 106.418 120.89C106.132 120.797 105.869 120.677 105.629 120.531C105.39 120.384 105.194 120.191 105.041 119.952C104.894 119.712 104.821 119.406 104.821 119.034C104.821 118.634 104.927 118.272 105.14 117.946C105.36 117.613 105.686 117.35 106.118 117.157C106.558 116.958 107.106 116.858 107.765 116.858C108.204 116.858 108.637 116.911 109.063 117.018C109.488 117.117 109.864 117.27 110.19 117.477L109.691 118.704C109.365 118.518 109.039 118.382 108.713 118.295C108.387 118.202 108.068 118.155 107.755 118.155C107.442 118.155 107.186 118.192 106.987 118.265C106.787 118.338 106.644 118.435 106.558 118.555C106.471 118.668 106.428 118.801 106.428 118.954C106.428 119.133 106.501 119.28 106.647 119.393C106.794 119.499 106.987 119.586 107.226 119.652C107.466 119.719 107.729 119.785 108.015 119.852C108.307 119.919 108.597 119.995 108.883 120.082C109.176 120.168 109.442 120.285 109.681 120.431C109.921 120.577 110.114 120.77 110.26 121.01C110.413 121.249 110.49 121.552 110.49 121.918C110.49 122.31 110.38 122.67 110.16 122.996C109.941 123.322 109.611 123.585 109.172 123.784C108.74 123.984 108.191 124.084 107.526 124.084ZM119.211 116.978H120.828V123.964H119.211V116.978ZM116.038 123.964H114.421V116.978H116.038V123.964ZM119.331 121.1H115.918V119.732H119.331V121.1ZM123.968 119.792H127.331V121.05H123.968V119.792ZM124.088 122.666H127.89V123.964H122.481V116.978H127.761V118.275H124.088V122.666ZM129.177 123.964V116.978H132.201C132.826 116.978 133.365 117.081 133.818 117.287C134.27 117.487 134.619 117.776 134.865 118.155C135.112 118.535 135.235 118.987 135.235 119.513C135.235 120.032 135.112 120.481 134.865 120.86C134.619 121.233 134.27 121.519 133.818 121.718C133.365 121.918 132.826 122.018 132.201 122.018H130.075L130.794 121.309V123.964H129.177ZM133.618 123.964L131.871 121.429H133.598L135.364 123.964H133.618ZM130.794 121.489L130.075 120.73H132.111C132.61 120.73 132.983 120.624 133.229 120.411C133.475 120.191 133.598 119.892 133.598 119.513C133.598 119.127 133.475 118.827 133.229 118.614C132.983 118.402 132.61 118.295 132.111 118.295H130.075L130.794 117.527V121.489ZM138.003 119.792H141.366V121.05H138.003V119.792ZM138.123 122.666H141.925V123.964H136.516V116.978H141.795V118.275H138.123V122.666Z" fill="#BDBDBD"/>
</g>
<path d="M82.707 0.199951H53.207L22.707 73.2H52.207L82.707 0.199951Z" fill="#BDBDBD"/>
<path d="M85.4074 6.69995L70.6074 42L83.7074 73.2H113.207L85.4074 6.69995Z" fill="#BDBDBD"/>
<path d="M78.4072 73.1999H64.4072L74.8072 62.8999L78.4072 73.1999Z" fill="#BDBDBD"/>
</svg>
