<svg width="144" height="137" viewBox="0 0 144 137" fill="none" xmlns="http://www.w3.org/2000/svg">
<path d="M28.1066 12.3C31.3099 12.3 33.9066 9.7032 33.9066 6.49995C33.9066 3.2967 31.3099 0.699951 28.1066 0.699951C24.9034 0.699951 22.3066 3.2967 22.3066 6.49995C22.3066 9.7032 24.9034 12.3 28.1066 12.3Z" fill="#BDBDBD"/>
<path d="M108.007 91.5C111.21 91.5 113.807 88.9033 113.807 85.7C113.807 82.4968 111.21 79.9 108.007 79.9C104.804 79.9 102.207 82.4968 102.207 85.7C102.207 88.9033 104.804 91.5 108.007 91.5Z" fill="#BDBDBD"/>
<path d="M107.706 11.6C110.91 11.6 113.506 9.00325 113.506 5.8C113.506 2.59675 110.91 0 107.706 0C104.503 0 101.906 2.59675 101.906 5.8C101.906 9.00325 104.503 11.6 107.706 11.6Z" fill="#BDBDBD"/>
<path d="M28.507 91.5C31.7103 91.5 34.307 88.9033 34.307 85.7C34.307 82.4968 31.7103 79.9 28.507 79.9C25.3038 79.9 22.707 82.4968 22.707 85.7C22.707 88.9033 25.3038 91.5 28.507 91.5Z" fill="#BDBDBD"/>
<path d="M92.5068 32.3L95.9068 30.1C97.0068 29.7 98.0068 29 98.9068 28.1C102.307 24.7 102.307 19.1 98.9068 15.6C95.5068 12.2 89.9068 12.2 86.4068 15.6C85.5068 16.5 84.9068 17.5 84.4068 18.6L82.2068 22C79.2068 26.5 74.9068 30 69.8068 31.8L69.0068 32.1L67.1068 31.4C62.0068 29.6 57.6068 26.2 54.7068 21.6L52.5068 18.2C52.1068 17.1 51.4068 16.1 50.5068 15.2C47.1068 11.8 41.5068 11.8 38.0068 15.2C34.6068 18.6 34.6068 24.2 38.0068 27.7C38.9068 28.6 39.9068 29.2 41.0068 29.7L44.4068 31.9C48.9068 34.9 52.4068 39.2 54.2068 44.3L54.6068 45.5L54.0068 47.2C52.2068 52.3 48.8068 56.7 44.2068 59.6L40.8068 61.8C39.7068 62.2 38.7068 62.9 37.8068 63.8C34.4068 67.2 34.4068 72.8 37.8068 76.3C41.2068 79.7 46.8068 79.7 50.3068 76.3C51.2068 75.4 51.8068 74.4 52.3068 73.3L54.5068 69.9C57.5068 65.4 61.8068 61.9 66.9068 60.1L68.3068 59.6L69.7068 60.1C74.8068 61.9 79.2068 65.3 82.1068 69.9L84.3068 73.3C84.7068 74.4 85.4068 75.4 86.3068 76.3C89.7068 79.7 95.3068 79.7 98.8068 76.3C102.207 72.9 102.207 67.3 98.8068 63.8C97.9068 62.9 96.9068 62.3 95.8068 61.8L92.4068 59.6C87.9068 56.6 84.4068 52.3 82.6068 47.2L82.3068 46.2L82.8068 44.7C84.5068 39.7 87.9068 35.3 92.5068 32.3ZM64.2068 50C63.4068 49.2 62.8068 48.1 62.6068 47C62.4068 45.9 62.5068 44.8 62.9068 43.7C63.2068 43 63.6068 42.4 64.2068 41.8C65.9068 40.1 68.4068 39.7 70.5068 40.5C71.2068 40.8 71.8068 41.2 72.4068 41.8C74.7068 44.1 74.7068 47.7 72.4068 50C71.6068 50.8 70.5068 51.4 69.4068 51.6C68.7068 51.7 67.9068 51.7 67.2068 51.6C66.1068 51.4 65.0068 50.9 64.2068 50Z" fill="#BDBDBD"/>
<g opacity="0.7">
<path d="M6.60442 123.487V111.564H1.90233V108.793H14.7071V111.564H10.005V123.487H6.60442ZM19.6646 114.712H26.7387V117.357H19.6646V114.712ZM19.9165 120.758H27.9142V123.487H16.5368V108.793H27.6414V111.522H19.9165V120.758ZM37.6522 123.739C36.5186 123.739 35.4621 123.557 34.4824 123.193C33.5168 122.815 32.6772 122.283 31.9635 121.598C31.2498 120.912 30.69 120.107 30.2841 119.184C29.8923 118.26 29.6964 117.245 29.6964 116.14C29.6964 115.034 29.8923 114.02 30.2841 113.096C30.69 112.172 31.2498 111.368 31.9635 110.682C32.6912 109.996 33.5378 109.471 34.5034 109.108C35.469 108.73 36.5256 108.541 37.6732 108.541C38.9466 108.541 40.0942 108.765 41.1158 109.213C42.1513 109.646 43.019 110.29 43.7187 111.144L41.5356 113.159C41.0318 112.585 40.472 112.158 39.8563 111.879C39.2405 111.585 38.5688 111.438 37.8411 111.438C37.1554 111.438 36.5256 111.55 35.9519 111.774C35.3781 111.997 34.8813 112.319 34.4615 112.739C34.0416 113.159 33.7128 113.656 33.4749 114.23C33.2509 114.803 33.139 115.44 33.139 116.14C33.139 116.84 33.2509 117.476 33.4749 118.05C33.7128 118.624 34.0416 119.121 34.4615 119.54C34.8813 119.96 35.3781 120.282 35.9519 120.506C36.5256 120.73 37.1554 120.842 37.8411 120.842C38.5688 120.842 39.2405 120.702 39.8563 120.422C40.472 120.128 41.0318 119.687 41.5356 119.1L43.7187 121.115C43.019 121.968 42.1513 122.619 41.1158 123.067C40.0942 123.515 38.9396 123.739 37.6522 123.739ZM56.0911 108.793H59.4917V123.487H56.0911V108.793ZM49.4158 123.487H46.0151V108.793H49.4158V123.487ZM56.343 117.462H49.1639V114.586H56.343V117.462ZM62.9682 123.487V108.793H70.1473C71.9946 108.793 73.38 109.143 74.3037 109.842C75.2413 110.542 75.7101 111.466 75.7101 112.613C75.7101 113.383 75.5212 114.055 75.1433 114.628C74.7655 115.188 74.2477 115.622 73.5899 115.93C72.9322 116.238 72.1765 116.392 71.3229 116.392L71.7217 115.531C72.6453 115.531 73.464 115.685 74.1777 115.993C74.8914 116.287 75.4442 116.728 75.836 117.315C76.2419 117.903 76.4448 118.624 76.4448 119.477C76.4448 120.737 75.948 121.724 74.9544 122.437C73.9608 123.137 72.4984 123.487 70.5672 123.487H62.9682ZM66.3479 120.926H70.3153C71.1969 120.926 71.8616 120.786 72.3095 120.506C72.7713 120.212 73.0022 119.75 73.0022 119.121C73.0022 118.505 72.7713 118.05 72.3095 117.756C71.8616 117.448 71.1969 117.294 70.3153 117.294H66.096V114.817H69.7275C70.5532 114.817 71.1829 114.677 71.6167 114.397C72.0646 114.104 72.2885 113.663 72.2885 113.075C72.2885 112.501 72.0646 112.074 71.6167 111.795C71.1829 111.501 70.5532 111.354 69.7275 111.354H66.3479V120.926ZM79.0194 123.487V108.793H85.3798C86.6953 108.793 87.8288 109.01 88.7804 109.444C89.732 109.863 90.4667 110.472 90.9845 111.27C91.5023 112.067 91.7612 113.019 91.7612 114.125C91.7612 115.216 91.5023 116.161 90.9845 116.958C90.4667 117.742 89.732 118.344 88.7804 118.764C87.8288 119.184 86.6953 119.393 85.3798 119.393H80.9086L82.42 117.903V123.487H79.0194ZM88.3606 123.487L84.6871 118.155H88.3186L92.0341 123.487H88.3606ZM82.42 118.281L80.9086 116.686H85.1909C86.2404 116.686 87.0241 116.462 87.5419 116.014C88.0597 115.552 88.3186 114.922 88.3186 114.125C88.3186 113.313 88.0597 112.683 87.5419 112.235C87.0241 111.788 86.2404 111.564 85.1909 111.564H80.9086L82.42 109.947V118.281ZM92.5243 123.487L99.0736 108.793H102.432L109.003 123.487H105.434L100.06 110.514H101.404L96.0089 123.487H92.5243ZM95.7989 120.338L96.7016 117.756H104.259L105.182 120.338H95.7989ZM110.527 123.487V108.793H113.34L122.009 119.372H120.645V108.793H124.004V123.487H121.212L112.521 112.907H113.886V123.487H110.527ZM127.48 123.487V108.793H134.156C135.751 108.793 137.157 109.101 138.375 109.716C139.592 110.318 140.544 111.165 141.23 112.256C141.915 113.348 142.258 114.642 142.258 116.14C142.258 117.623 141.915 118.918 141.23 120.023C140.544 121.115 139.592 121.968 138.375 122.584C137.157 123.186 135.751 123.487 134.156 123.487H127.48ZM130.881 120.695H133.988C134.967 120.695 135.814 120.513 136.528 120.149C137.255 119.771 137.815 119.24 138.207 118.554C138.613 117.868 138.816 117.063 138.816 116.14C138.816 115.202 138.613 114.397 138.207 113.726C137.815 113.04 137.255 112.515 136.528 112.151C135.814 111.774 134.967 111.585 133.988 111.585H130.881V120.695Z" fill="#BDBDBD"/>
<path d="M3.56491 134.964V132.109L3.93418 133.087L0.860277 127.977H2.57687L4.9322 131.9H3.94416L6.30947 127.977H7.89632L4.82242 133.087L5.1817 132.109V134.964H3.56491ZM11.6639 135.083C11.1117 135.083 10.5994 134.994 10.127 134.814C9.66123 134.634 9.25537 134.381 8.90939 134.055C8.57006 133.729 8.30392 133.347 8.11097 132.908C7.92467 132.469 7.83152 131.99 7.83152 131.471C7.83152 130.952 7.92467 130.473 8.11097 130.033C8.30392 129.594 8.57339 129.212 8.91937 128.886C9.26535 128.56 9.67121 128.307 10.137 128.127C10.6027 127.948 11.1084 127.858 11.6539 127.858C12.2062 127.858 12.7118 127.948 13.1709 128.127C13.6367 128.307 14.0392 128.56 14.3785 128.886C14.7245 129.212 14.994 129.594 15.1869 130.033C15.3799 130.466 15.4764 130.945 15.4764 131.471C15.4764 131.99 15.3799 132.472 15.1869 132.918C14.994 133.357 14.7245 133.739 14.3785 134.065C14.0392 134.385 13.6367 134.634 13.1709 134.814C12.7118 134.994 12.2095 135.083 11.6639 135.083ZM11.6539 133.706C11.9667 133.706 12.2528 133.653 12.5122 133.546C12.7784 133.44 13.0112 133.287 13.2109 133.087C13.4105 132.888 13.5635 132.652 13.6699 132.379C13.7831 132.106 13.8396 131.803 13.8396 131.471C13.8396 131.138 13.7831 130.835 13.6699 130.562C13.5635 130.29 13.4105 130.053 13.2109 129.854C13.0179 129.654 12.7884 129.501 12.5222 129.395C12.2561 129.288 11.9667 129.235 11.6539 129.235C11.3412 129.235 11.0518 129.288 10.7857 129.395C10.5262 129.501 10.2966 129.654 10.097 129.854C9.89743 130.053 9.74107 130.29 9.62796 130.562C9.52151 130.835 9.46828 131.138 9.46828 131.471C9.46828 131.797 9.52151 132.099 9.62796 132.379C9.74107 132.652 9.8941 132.888 10.0871 133.087C10.2867 133.287 10.5195 133.44 10.7857 133.546C11.0518 133.653 11.3412 133.706 11.6539 133.706ZM19.7953 135.083C18.8039 135.083 18.0288 134.807 17.4699 134.255C16.911 133.703 16.6316 132.914 16.6316 131.89V127.977H18.2484V131.83C18.2484 132.495 18.3848 132.974 18.6575 133.267C18.9303 133.56 19.3129 133.706 19.8053 133.706C20.2976 133.706 20.6802 133.56 20.953 133.267C21.2258 132.974 21.3622 132.495 21.3622 131.83V127.977H22.959V131.89C22.959 132.914 22.6796 133.703 22.1207 134.255C21.5618 134.807 20.7867 135.083 19.7953 135.083ZM24.5567 134.964V127.977H27.5807C28.2061 127.977 28.7451 128.081 29.1975 128.287C29.6499 128.486 29.9992 128.776 30.2454 129.155C30.4916 129.534 30.6147 129.987 30.6147 130.512C30.6147 131.031 30.4916 131.481 30.2454 131.86C29.9992 132.232 29.6499 132.518 29.1975 132.718C28.7451 132.918 28.2061 133.017 27.5807 133.017H25.4549L26.1735 132.309V134.964H24.5567ZM28.9979 134.964L27.2514 132.429H28.9779L30.7444 134.964H28.9979ZM26.1735 132.489L25.4549 131.73H27.4909C27.9899 131.73 28.3625 131.624 28.6087 131.411C28.8548 131.191 28.9779 130.892 28.9779 130.512C28.9779 130.127 28.8548 129.827 28.6087 129.614C28.3625 129.401 27.9899 129.295 27.4909 129.295H25.4549L26.1735 128.526V132.489ZM36.1692 134.964V129.295H33.9336V127.977H40.0216V129.295H37.786V134.964H36.1692ZM39.6224 134.964L42.7363 127.977H44.3331L47.4569 134.964H45.7603L43.2053 128.796H43.8441L41.2792 134.964H39.6224ZM41.1794 133.467L41.6085 132.239H45.2014L45.6405 133.467H41.1794ZM51.4576 135.083C50.9053 135.083 50.3963 134.997 49.9306 134.824C49.4715 134.644 49.069 134.391 48.723 134.065C48.3836 133.739 48.1175 133.357 47.9246 132.918C47.7383 132.479 47.6451 131.996 47.6451 131.471C47.6451 130.945 47.7383 130.463 47.9246 130.023C48.1175 129.584 48.387 129.202 48.733 128.876C49.0789 128.55 49.4848 128.3 49.9505 128.127C50.4163 127.948 50.9286 127.858 51.4875 127.858C52.1063 127.858 52.6618 127.961 53.1542 128.167C53.6532 128.373 54.0724 128.673 54.4117 129.065L53.3737 130.023C53.1209 129.757 52.8448 129.561 52.5454 129.435C52.246 129.302 51.92 129.235 51.5673 129.235C51.228 129.235 50.9186 129.288 50.6392 129.395C50.3597 129.501 50.1169 129.654 49.9106 129.854C49.711 130.053 49.5547 130.29 49.4415 130.562C49.3351 130.835 49.2819 131.138 49.2819 131.471C49.2819 131.797 49.3351 132.096 49.4415 132.369C49.5547 132.642 49.711 132.881 49.9106 133.087C50.1169 133.287 50.3564 133.44 50.6292 133.546C50.9086 133.653 51.2147 133.706 51.5474 133.706C51.8667 133.706 52.1761 133.656 52.4755 133.556C52.7816 133.45 53.0777 133.274 53.3638 133.027L54.2819 134.195C53.9027 134.481 53.4602 134.701 52.9546 134.854C52.4556 135.007 51.9566 135.083 51.4576 135.083ZM52.8049 133.986V131.361H54.2819V134.195L52.8049 133.986ZM55.7838 134.964V127.977H57.4006V133.646H60.9037V134.964H55.7838ZM61.807 134.964V127.977H63.4238V134.964H61.807ZM65.0818 134.964V127.977H66.4191L70.5409 133.008H69.8922V127.977H71.4891V134.964H70.1617L66.0299 129.934H66.6786V134.964H65.0818ZM74.629 130.792H77.9923V132.049H74.629V130.792ZM74.7488 133.666H78.5512V134.964H73.142V127.977H78.4215V129.275H74.7488V133.666ZM86.0374 135.083C85.4852 135.083 84.9762 134.997 84.5104 134.824C84.0513 134.644 83.6488 134.391 83.3028 134.065C82.9635 133.739 82.6973 133.357 82.5044 132.918C82.3181 132.479 82.225 131.996 82.225 131.471C82.225 130.945 82.3181 130.463 82.5044 130.023C82.6973 129.584 82.9668 129.202 83.3128 128.876C83.6588 128.55 84.0646 128.3 84.5304 128.127C84.9961 127.948 85.5084 127.858 86.0673 127.858C86.6861 127.858 87.2417 127.961 87.734 128.167C88.233 128.373 88.6522 128.673 88.9915 129.065L87.9536 130.023C87.7008 129.757 87.4246 129.561 87.1252 129.435C86.8258 129.302 86.4998 129.235 86.1472 129.235C85.8078 129.235 85.4985 129.288 85.219 129.395C84.9396 129.501 84.6967 129.654 84.4905 129.854C84.2909 130.053 84.1345 130.29 84.0214 130.562C83.9149 130.835 83.8617 131.138 83.8617 131.471C83.8617 131.797 83.9149 132.096 84.0214 132.369C84.1345 132.642 84.2909 132.881 84.4905 133.087C84.6967 133.287 84.9362 133.44 85.209 133.546C85.4885 133.653 85.7945 133.706 86.1272 133.706C86.4466 133.706 86.756 133.656 87.0554 133.556C87.3614 133.45 87.6575 133.274 87.9436 133.027L88.8618 134.195C88.4825 134.481 88.0401 134.701 87.5344 134.854C87.0354 135.007 86.5364 135.083 86.0374 135.083ZM87.3847 133.986V131.361H88.8618V134.195L87.3847 133.986ZM93.7569 135.083C93.2047 135.083 92.6924 134.994 92.22 134.814C91.7542 134.634 91.3484 134.381 91.0024 134.055C90.663 133.729 90.3969 133.347 90.204 132.908C90.0177 132.469 89.9245 131.99 89.9245 131.471C89.9245 130.952 90.0177 130.473 90.204 130.033C90.3969 129.594 90.6664 129.212 91.0124 128.886C91.3583 128.56 91.7642 128.307 92.2299 128.127C92.6957 127.948 93.2013 127.858 93.7469 127.858C94.2992 127.858 94.8048 127.948 95.2639 128.127C95.7297 128.307 96.1322 128.56 96.4715 128.886C96.8175 129.212 97.087 129.594 97.2799 130.033C97.4729 130.466 97.5693 130.945 97.5693 131.471C97.5693 131.99 97.4729 132.472 97.2799 132.918C97.087 133.357 96.8175 133.739 96.4715 134.065C96.1322 134.385 95.7297 134.634 95.2639 134.814C94.8048 134.994 94.3025 135.083 93.7569 135.083ZM93.7469 133.706C94.0596 133.706 94.3457 133.653 94.6052 133.546C94.8714 133.44 95.1042 133.287 95.3038 133.087C95.5034 132.888 95.6565 132.652 95.7629 132.379C95.876 132.106 95.9326 131.803 95.9326 131.471C95.9326 131.138 95.876 130.835 95.7629 130.562C95.6565 130.29 95.5034 130.053 95.3038 129.854C95.1109 129.654 94.8813 129.501 94.6152 129.395C94.3491 129.288 94.0596 129.235 93.7469 129.235C93.4342 129.235 93.1448 129.288 92.8787 129.395C92.6192 129.501 92.3896 129.654 92.19 129.854C91.9904 130.053 91.8341 130.29 91.7209 130.562C91.6145 130.835 91.5613 131.138 91.5613 131.471C91.5613 131.797 91.6145 132.099 91.7209 132.379C91.8341 132.652 91.9871 132.888 92.18 133.087C92.3796 133.287 92.6125 133.44 92.8787 133.546C93.1448 133.653 93.4342 133.706 93.7469 133.706ZM100.271 130.792H103.635V132.049H100.271V130.792ZM100.391 133.666H104.194V134.964H98.7844V127.977H104.064V129.275H100.391V133.666ZM107.776 135.083C107.217 135.083 106.681 135.01 106.169 134.864C105.656 134.711 105.244 134.515 104.931 134.275L105.48 133.057C105.78 133.27 106.132 133.447 106.538 133.586C106.951 133.719 107.366 133.786 107.786 133.786C108.105 133.786 108.361 133.756 108.554 133.696C108.754 133.63 108.9 133.54 108.993 133.427C109.086 133.314 109.133 133.184 109.133 133.037C109.133 132.851 109.06 132.705 108.913 132.598C108.767 132.485 108.574 132.395 108.334 132.329C108.095 132.256 107.829 132.189 107.536 132.129C107.25 132.063 106.961 131.983 106.668 131.89C106.382 131.797 106.119 131.677 105.879 131.53C105.64 131.384 105.444 131.191 105.291 130.952C105.144 130.712 105.071 130.406 105.071 130.033C105.071 129.634 105.177 129.272 105.39 128.946C105.61 128.613 105.936 128.35 106.368 128.157C106.808 127.958 107.356 127.858 108.015 127.858C108.454 127.858 108.887 127.911 109.313 128.017C109.738 128.117 110.114 128.27 110.44 128.476L109.941 129.704C109.615 129.518 109.289 129.381 108.963 129.295C108.637 129.202 108.318 129.155 108.005 129.155C107.692 129.155 107.436 129.192 107.237 129.265C107.037 129.338 106.894 129.435 106.808 129.554C106.721 129.667 106.678 129.801 106.678 129.954C106.678 130.133 106.751 130.28 106.897 130.393C107.044 130.499 107.237 130.586 107.476 130.652C107.716 130.719 107.979 130.785 108.265 130.852C108.557 130.918 108.847 130.995 109.133 131.081C109.426 131.168 109.692 131.284 109.931 131.431C110.171 131.577 110.364 131.77 110.51 132.009C110.663 132.249 110.74 132.552 110.74 132.918C110.74 133.31 110.63 133.67 110.41 133.996C110.191 134.322 109.861 134.584 109.422 134.784C108.99 134.984 108.441 135.083 107.776 135.083ZM119.461 127.977H121.078V134.964H119.461V127.977ZM116.288 134.964H114.671V127.977H116.288V134.964ZM119.581 132.099H116.168V130.732H119.581V132.099ZM124.218 130.792H127.581V132.049H124.218V130.792ZM124.338 133.666H128.14V134.964H122.731V127.977H128.011V129.275H124.338V133.666ZM129.427 134.964V127.977H132.451C133.076 127.977 133.615 128.081 134.068 128.287C134.52 128.486 134.869 128.776 135.115 129.155C135.362 129.534 135.485 129.987 135.485 130.512C135.485 131.031 135.362 131.481 135.115 131.86C134.869 132.232 134.52 132.518 134.068 132.718C133.615 132.918 133.076 133.017 132.451 133.017H130.325L131.044 132.309V134.964H129.427ZM133.868 134.964L132.121 132.429H133.848L135.614 134.964H133.868ZM131.044 132.489L130.325 131.73H132.361C132.86 131.73 133.233 131.624 133.479 131.411C133.725 131.191 133.848 130.892 133.848 130.512C133.848 130.127 133.725 129.827 133.479 129.614C133.233 129.401 132.86 129.295 132.361 129.295H130.325L131.044 128.526V132.489ZM138.253 130.792H141.616V132.049H138.253V130.792ZM138.373 133.666H142.175V134.964H136.766V127.977H142.045V129.275H138.373V133.666Z" fill="#BDBDBD"/>
</g>
</svg>
