<svg width="45" height="45" viewBox="0 0 45 45" fill="none" xmlns="http://www.w3.org/2000/svg">
<path d="M44.3396 22.4005C44.7043 22.4005 45 22.1049 45 21.7401V17.0259C45 16.6612 44.7043 16.3655 44.3396 16.3655H40.214V14.8865C41.7712 14.5783 42.9491 13.2019 42.9491 11.5555C42.9491 9.9219 40.5732 6.3996 40.0969 5.71001C39.7347 5.32997 39.3725 5.32997 39.0103 5.71001C38.534 6.39951 36.1582 9.92182 36.1582 11.5555C36.1582 13.2019 37.336 14.5783 38.8933 14.8864V16.3654H34.7677C34.4029 16.3654 34.1073 16.6611 34.1073 17.0258V24.6105C33.9014 24.5895 33.6925 24.5788 33.4812 24.5788H30.1097C32.4026 23.1791 32.2242 16.2003 32.2643 12.8539C32.1566 12.2728 31.8241 12.0808 31.267 12.2781C31.1249 12.3624 28.0356 14.1999 25.5811 16.0307C24.5304 13.7775 23.3462 11.6491 23.1167 11.2405C22.7328 10.7911 22.349 10.7911 21.9651 11.2405C21.7389 11.6434 20.5847 13.7177 19.5453 15.9353C17.1109 14.1355 14.1256 12.3595 13.9883 12.2781C13.4312 12.0808 13.0988 12.2728 12.991 12.8538C13.0305 16.176 13.3397 23.8684 15.143 24.5787H10.8936V17.0258C10.8936 16.661 10.5979 16.3653 10.2332 16.3653H6.10726V14.8863C7.6645 14.5782 8.84232 13.2017 8.84232 11.5554C8.84232 9.92173 6.46646 6.39942 5.99019 5.70983C5.62799 5.32979 5.2657 5.32979 4.90351 5.70983C4.42723 6.39934 2.05146 9.92164 2.05146 11.5554C2.05146 13.2017 3.22928 14.5781 4.78652 14.8862V16.3653H0.66041C0.295664 16.3653 0 16.6609 0 17.0257V38.9144C0 39.2791 0.295664 39.5748 0.66041 39.5748H11.4536C11.8184 39.5748 12.1141 39.2791 12.1141 38.9144C12.1141 38.5496 11.8184 38.254 11.4536 38.254H1.32073V36.8399H43.6792V38.254H14.332C13.9672 38.254 13.6716 38.5496 13.6716 38.9144C13.6716 39.2791 13.9672 39.5748 14.332 39.5748H44.3396C44.7043 39.5748 45 39.2791 45 38.9144V24.6185C45 24.2538 44.7043 23.9581 44.3396 23.9581C43.9748 23.9581 43.6792 24.2538 43.6792 24.6185V35.5192H37.2837C38.7425 34.3606 39.6112 32.5762 39.6112 30.709C39.6112 28.0091 37.8567 25.7113 35.4279 24.8957V17.6862H43.6791V21.7401C43.6793 22.1049 43.9749 22.4005 44.3396 22.4005ZM30.9165 14.0394C30.8296 16.8157 30.5341 21.5838 29.7994 22.8566C29.0073 24.2284 27.4073 24.8493 25.944 24.466C26.785 23.6066 27.3043 22.431 27.3043 21.1364C27.3043 20.2666 26.7981 18.8054 26.1361 17.2663C27.7389 16.05 29.7316 14.7748 30.9165 14.0394ZM22.541 12.9387C23.5396 14.6738 25.9835 20.3962 25.9835 21.1363C25.9835 22.8087 24.7847 24.2063 23.2013 24.5152C22.796 24.5949 22.3588 24.6017 21.8805 24.5152C20.2972 24.2063 19.0984 22.8087 19.0984 21.1363C19.0985 20.3801 21.3963 14.8793 22.541 12.9387ZM14.3388 14.0394C15.4916 14.755 17.4093 15.9817 18.9884 17.1676C18.3057 18.7427 17.7777 20.248 17.7777 21.1363C17.7777 22.4484 18.311 23.6384 19.1723 24.5007C18.6363 24.6184 18.0776 24.6033 17.5467 24.4609C16.6584 24.2228 15.9159 23.6531 15.456 22.8563C14.7207 21.5838 14.4255 16.8156 14.3388 14.0394ZM3.37228 11.5556C3.37228 10.7994 4.45579 8.82397 5.44702 7.27851C6.43825 8.82353 7.52159 10.7985 7.52159 11.5556C7.52159 12.4688 6.92851 13.2461 6.10726 13.5225V11.5606C6.10726 11.1959 5.81159 10.9002 5.44685 10.9002C5.0821 10.9002 4.78644 11.1959 4.78644 11.5606V13.5225C3.96527 13.2461 3.37228 12.4688 3.37228 11.5556ZM5.75684 35.5192H1.32073V17.6863H9.57287V24.5842C7.30441 24.6941 5.47058 26.6214 5.47058 28.8962C5.47058 30.1748 6.02271 31.3249 6.90618 32.1158C5.77239 32.6414 5.17298 34.4165 5.75684 35.5192ZM38.2906 30.709C38.2906 33.3333 36.1058 35.5192 33.4812 35.5192H7.94566C7.30916 35.5192 6.79131 35.001 6.79131 34.3639C6.8574 33.6603 7.24219 33.2751 7.94566 33.2087L33.0383 33.2043C34.5449 33.063 35.3684 32.2392 35.509 30.7327C35.509 29.3734 34.4027 28.2648 33.0425 28.2612L24.1476 28.2418H24.1461C23.7821 28.2418 23.4866 28.5365 23.4858 28.9007C23.485 29.2655 23.78 29.5618 24.1447 29.5626L33.0393 29.582C33.6728 29.5837 34.1883 30.0999 34.1883 30.7327C34.1231 31.4344 33.7397 31.818 33.0382 31.8836L9.63756 31.888C8.0405 31.8097 6.7914 30.4982 6.7914 28.8961C6.7914 27.2613 8.15194 25.8997 9.78688 25.8997H33.4813C36.1332 25.8997 38.2906 28.0572 38.2906 30.709ZM39.5536 10.9036C39.1888 10.9036 38.8932 11.1992 38.8932 11.564V13.5225C38.072 13.2461 37.4789 12.4688 37.4789 11.5556C37.4789 10.7994 38.5625 8.82397 39.5537 7.27851C40.5449 8.82353 41.6283 10.7985 41.6283 11.5556C41.6283 12.4688 41.0352 13.2461 40.2139 13.5225V11.564C40.214 11.1992 39.9183 10.9036 39.5536 10.9036Z" fill="#BF9766"/>
<path d="M21.2699 28.2356L10.2346 28.2109H10.2331C9.86912 28.2109 9.57355 28.5056 9.57276 28.8699C9.57196 29.2345 9.86693 29.5309 10.2317 29.5317L21.267 29.5564H21.2685C21.6325 29.5564 21.9281 29.2617 21.9289 28.8975C21.9297 28.5328 21.6347 28.2365 21.2699 28.2356Z" fill="#BF9766"/>
</svg>
