<svg width="24" height="24" viewBox="0 0 24 24" fill="none" xmlns="http://www.w3.org/2000/svg">
<path d="M4.19989 9.74681C6.24326 7.70338 8.95987 6.57802 11.8493 6.57802C14.7387 6.57802 17.4554 7.70338 19.4987 9.74681C20.1064 10.2494 20.7141 10.2494 21.3217 9.74681C21.8251 9.13916 21.8251 8.53146 21.3217 7.92382C18.7914 5.39347 15.4273 4 11.8493 4C8.27132 4 4.90726 5.39347 2.37685 7.92388C1.87438 8.42645 1.87438 9.24418 2.37685 9.74681C2.87953 10.2494 3.6972 10.2494 4.19989 9.74681ZM2.96751 8.51443C5.34006 6.14187 8.49443 4.83521 11.8493 4.83521C15.2042 4.83521 18.3586 6.14187 20.7311 8.51437C20.9084 8.72829 20.9084 8.94222 20.7311 9.15615C20.5542 9.3331 20.2663 9.3331 20.0894 9.15615C17.8882 6.95503 14.9618 5.74281 11.8493 5.74281C8.73681 5.74281 5.81045 6.95503 3.60923 9.1562C3.43228 9.33327 3.14441 9.3331 2.96751 9.15626C2.79055 8.9793 2.79055 8.69132 2.96751 8.51443Z" fill="white"/>
<path d="M18.8753 12.193C19.379 11.5855 19.3792 10.9779 18.8759 10.3702C16.9995 8.49312 14.5041 7.45935 11.8494 7.45935C9.19468 7.45935 6.69907 8.49329 4.82218 10.3707C4.31883 10.9785 4.31905 11.5861 4.82279 12.1934C5.43044 12.6968 6.03808 12.6968 6.64572 12.1933C7.83133 11.0067 9.33265 10.2782 10.9875 10.0869C11.2166 10.0604 11.3808 9.85323 11.3544 9.62411C11.3279 9.39498 11.1201 9.23094 10.8915 9.25723C9.04757 9.47043 7.37503 10.2816 6.05495 11.6028C5.84097 11.7801 5.62704 11.78 5.41312 11.6026C5.23572 11.3889 5.23561 11.1751 5.41278 10.9612C7.13198 9.24163 9.41784 8.29456 11.8494 8.29456C14.2809 8.29456 16.5665 9.24141 18.2853 10.9608C18.4625 11.1747 18.4622 11.3886 18.2847 11.6023C18.1079 11.7792 17.8201 11.7792 17.6432 11.6024C16.3227 10.2814 14.6504 9.47048 12.8071 9.25728C12.5781 9.23011 12.3708 9.39504 12.3443 9.62416C12.3177 9.85323 12.482 10.0605 12.7111 10.087C14.3654 10.2784 15.8666 11.0065 17.0525 12.193C17.5551 12.6955 18.3728 12.6955 18.8753 12.193Z" fill="white"/>
<path d="M16.4291 14.6395C16.983 14.0776 16.9326 13.4243 16.4292 12.8167C15.2059 11.5932 13.5793 10.9196 11.8489 10.9196C10.1187 10.9196 8.492 11.5933 7.26858 12.8166C6.76528 13.4242 6.76528 14.0319 7.26864 14.6395C7.77121 15.142 8.58888 15.142 9.09157 14.6395C9.828 13.903 10.8073 13.4975 11.8489 13.4975C12.8907 13.4975 13.8699 13.903 14.6063 14.6395C14.8576 14.8908 15.775 15.3031 16.4291 14.6395ZM8.50096 14.0489C8.32412 14.2258 8.03614 14.2258 7.85924 14.0489C7.68207 13.8349 7.68207 13.6211 7.85924 13.4072C8.92486 12.3416 10.3417 11.7547 11.849 11.7547C13.3563 11.7547 14.7731 12.3416 15.8387 13.4072C16.0159 13.6211 16.0159 13.8351 15.8386 14.0489C15.6617 14.2259 15.3739 14.2258 15.197 14.0489C14.3028 13.1547 13.1139 12.6623 11.849 12.6623C10.5841 12.6623 9.39519 13.1547 8.50096 14.0489Z" fill="white"/>
<path d="M9.53809 16.6888C9.53809 17.9633 10.575 19.0002 11.8494 19.0002C13.1239 19.0002 14.1608 17.9633 14.1608 16.6888C14.1608 15.4143 13.1239 14.3774 11.8494 14.3774C10.575 14.3774 9.53809 15.4143 9.53809 16.6888ZM13.3256 16.6888C13.3256 17.5027 12.6634 18.165 11.8494 18.165C11.0355 18.165 10.3733 17.5027 10.3733 16.6888C10.3733 15.8749 11.0355 15.2127 11.8494 15.2127C12.6634 15.2127 13.3256 15.8748 13.3256 16.6888Z" fill="white"/>
</svg>
